<?xml version="1.0" encoding="UTF-8"?>
<svg id="Layer_1" data-name="Layer 1" xmlns="http://www.w3.org/2000/svg" viewBox="0 0 100 100">
  <path d="M78.8,58.57c-.04,3.71-3.06,6.71-6.79,6.71-.54,0-1.07-.06-1.57-.21l2.51,6.86h14.36c2.89,0,5.23-2.34,5.23-5.21v-13.14c-.81.56-1.71,1.01-2.68,1.33l-11.06,3.66Z"/>
  <path d="M91.21,37.2h-7.09v-3.95c0-2.22-1.8-4.02-4.02-4.02h-16.16c-2.22,0-4.02,1.8-4.02,4.02v3.95h-.45c-.04.9-.09,1.86-.17,2.57v.08l-.08.47c-.17,1.14-.81,2.12-1.71,2.76-.81,3.11-2.25,5.92-4.16,8.29.56.36,1.18.64,1.82.84l12.89,4.08v2.23c0,1.06.41,2.06,1.16,2.81.75.74,1.74,1.15,2.79,1.15,2.18,0,3.96-1.77,3.96-3.96v-1.98l13-4.29c3.32-1.09,5.55-4.18,5.55-7.69v-4.03c0-1.82-1.48-3.32-3.32-3.32ZM62.73,34.06c0-1.12.9-2.02,2.02-2.02h14.54c1.12,0,2.02.9,2.02,2.02v3.14h-18.58v-3.14ZM73.16,58.5c0,.63-.51,1.14-1.15,1.14-.39,0-.66-.18-.81-.34-.21-.21-.33-.5-.33-.81v-5.01c0-.63.51-1.14,1.14-1.14.39,0,.66.19.8.32.16.16.34.43.34.82v5.01Z"/>
  <path d="M67.66,65.68c-1.31-4.87-5.41-8.5-10.48-9.25l-.51-.07c-.37-.05-.74-.11-1.11-.14-.51-.07-1.02.19-1.31.62l-9.84,14.74-.36-6.37,2.24-6.17c.16-.43.09-.91-.17-1.29-.26-.38-.69-.6-1.15-.6h-11.09c-.46,0-.89.22-1.15.6-.26.38-.33.86-.17,1.29l2.25,6.18-.36,6.36-9.84-14.75c-.29-.43-.79-.67-1.31-.62-.37.03-.74.09-1.11.14l-.53.07c-5.04.75-9.13,4.38-10.4,9.13l-5.7,15.53c-.16.43-.1.91.17,1.29.26.38.69.6,1.15.6h65.11c.46,0,.89-.22,1.15-.6.26-.38.32-.86.17-1.29l-5.64-15.41ZM37.05,75.47l.52-9.06h3.75l.52,9.06-2.39,3.58-2.39-3.58Z"/>
  <path d="M22.44,39.93s.01.06.02.1c0,.03.03.05.04.08.03.08.04.16.08.24.02.03.05.04.07.06.1.15.23.28.38.38.07.05.14.08.22.11,1.44,8.38,8.27,14.82,15.93,14.82s14.41-6.38,15.9-14.7c.67-.01,1.27-.48,1.37-1.17,0-.02,0-.04,0-.07.19-1.22.28-4.48.28-5.38,0-9.59-7.88-17.39-17.57-17.39s-17.53,7.8-17.53,17.39c0,1.75.27,3.55.78,5.37,0,.05.02.1.03.15ZM30.38,37.45c2.86-1.62,4.93-4.36,5.7-7.51,5.22,5.55,10.66,9.09,16.24,10.56-1.24,6.92-6.97,12.41-13.14,12.41s-12.17-5.75-13.23-12.89l4.43-2.57Z"/>
</svg>