<?xml version="1.0" encoding="UTF-8"?>
<svg id="Layer_1" data-name="Layer 1" xmlns="http://www.w3.org/2000/svg" viewBox="0 0 100 100">
  <g id="Page-1">
    <g id="_053---Calculator" data-name="053---Calculator">
      <rect id="Rectangle-path" x="55.49" y="37.64" width="9.62" height="9.62" rx="1.37" ry="1.37"/>
      <rect id="Rectangle-path-2" data-name="Rectangle-path" x="55.49" y="55.49" width="9.62" height="9.62" rx="1.37" ry="1.37"/>
      <path id="Shape" d="M45.88,80.17c-4.1,2.13-11.92,2.79-17.17,2.79-1.19,0-2.37-.03-3.5-.08-.76-.04-1.34-.68-1.3-1.44s.68-1.34,1.44-1.3c1.09.05,2.22.08,3.37.08,10.53,0,16.86-2.28,17.17-3.45v-4.84c-1.66.79-3.41,1.37-5.22,1.7-.09.02-.18.03-.28.03-.7,0-1.29-.54-1.36-1.24s.4-1.34,1.09-1.48c4.53-.95,5.71-2.14,5.78-2.41v-4.84c-4.11,2.13-11.92,2.79-17.18,2.79-1.19,0-2.37-.03-3.5-.08-.76-.04-1.34-.68-1.3-1.44s.68-1.34,1.44-1.3c1.09.05,2.22.08,3.37.08,10.53,0,16.86-2.28,17.17-3.45v-4.84c-1.66.79-3.41,1.37-5.22,1.7-.09.02-.18.03-.28.03-.7,0-1.29-.54-1.36-1.24s.4-1.34,1.09-1.48c4.52-.95,5.7-2.14,5.77-2.41v-4.84c-4.1,2.13-11.92,2.79-17.17,2.79-1.19,0-2.37-.03-3.5-.08-.76-.04-1.34-.68-1.3-1.44s.68-1.34,1.44-1.3c1.09.05,2.22.08,3.37.08,10.53,0,16.87-2.28,17.17-3.45-.3-1.13-6.64-3.41-17.17-3.41s-16.85,2.28-17.17,3.45h0c.09.29,1.55,1.66,7.1,2.63.75.13,1.25.84,1.12,1.59s-.84,1.25-1.59,1.12c-2.3-.33-4.53-.99-6.63-1.97v4.85c.32,1.17,6.66,3.45,17.17,3.45,1.63,0,3.21-.05,4.71-.16.5-.05.98.17,1.27.59.28.41.32.95.1,1.39s-.67.74-1.17.76c-1.56.11-3.21.17-4.91.17-5.25,0-13.07-.66-17.17-2.79v4.84c.1.33,1.56,1.69,7.1,2.66.7.12,1.19.76,1.13,1.47s-.65,1.25-1.37,1.26c-.08,0-.16,0-.24-.02-2.3-.33-4.53-.99-6.63-1.97v4.85c.32,1.17,6.66,3.45,17.17,3.45,1.63,0,3.21-.05,4.71-.16.5-.05.98.17,1.27.59.28.41.32.95.1,1.39s-.67.74-1.17.76c-1.56.11-3.21.17-4.91.17-5.25,0-13.07-.66-17.17-2.79v4.84c.1.33,1.56,1.69,7.1,2.66.7.12,1.19.76,1.13,1.47s-.65,1.25-1.37,1.26c-.08,0-.16,0-.24-.02-2.3-.33-4.53-.99-6.63-1.97v4.86c.3,1.15,6.64,3.43,17.17,3.43s16.87-2.28,17.17-3.45v-4.83Z"/>
      <rect id="Rectangle-path-3" data-name="Rectangle-path" x="73.35" y="37.64" width="9.62" height="9.62" rx="1.37" ry="1.37"/>
      <rect id="Rectangle-path-4" data-name="Rectangle-path" x="55.49" y="73.35" width="27.47" height="9.62" rx="1.37" ry="1.37"/>
      <rect id="Rectangle-path-5" data-name="Rectangle-path" x="73.35" y="55.49" width="9.62" height="9.62" rx="1.37" ry="1.37"/>
      <path id="Shape-2" data-name="Shape" d="M71.87,28.02h9.72c.76,0,1.37-.61,1.37-1.37v-8.24c0-.76-.61-1.37-1.37-1.37h-2.03l-7.69,10.99Z"/>
      <path id="Shape-3" data-name="Shape" d="M37.64,18.41v8.24c0,.76.61,1.37,1.37,1.37h21.26l7.69-10.99h-28.95c-.76,0-1.37.61-1.37,1.37h0Z"/>
      <path id="Shape-4" data-name="Shape" d="M85.71,11.54h-50.82c-1.52,0-2.75,1.23-2.75,2.75v23.44c7.29.36,16.48,1.91,16.48,6.09v41.21c0,1.44-1.1,2.56-2.83,3.43h39.92c1.52,0,2.75-1.23,2.75-2.75V14.29c0-1.52-1.23-2.75-2.75-2.75ZM85.71,81.59c0,2.28-1.84,4.12-4.12,4.12h-24.72c-2.28,0-4.12-1.84-4.12-4.12v-6.87c0-2.28,1.84-4.12,4.12-4.12h24.72c2.28,0,4.12,1.84,4.12,4.12v6.87ZM56.87,52.75h6.87c2.28,0,4.12,1.84,4.12,4.12v6.87c0,2.28-1.84,4.12-4.12,4.12h-6.87c-2.28,0-4.12-1.84-4.12-4.12v-6.87c0-2.28,1.84-4.12,4.12-4.12ZM52.75,45.88v-6.87c0-2.28,1.84-4.12,4.12-4.12h6.87c2.28,0,4.12,1.84,4.12,4.12v6.87c0,2.28-1.84,4.12-4.12,4.12h-6.87c-2.28,0-4.12-1.84-4.12-4.12ZM85.71,63.74c0,2.28-1.84,4.12-4.12,4.12h-6.87c-2.28,0-4.12-1.84-4.12-4.12v-6.87c0-2.28,1.84-4.12,4.12-4.12h6.87c2.28,0,4.12,1.84,4.12,4.12v6.87ZM85.71,45.88c0,2.28-1.84,4.12-4.12,4.12h-6.87c-2.28,0-4.12-1.84-4.12-4.12v-6.87c0-2.28,1.84-4.12,4.12-4.12h6.87c2.28,0,4.12,1.84,4.12,4.12v6.87ZM85.71,28.02c0,1.52-1.23,2.75-2.75,2.75h-45.33c-1.52,0-2.75-1.23-2.75-2.75v-10.99c0-1.52,1.23-2.75,2.75-2.75h45.33c1.52,0,2.75,1.23,2.75,2.75v10.99Z"/>
    </g>
  </g>
</svg>