<?xml version="1.0" encoding="UTF-8"?>
<svg id="Layer_1" data-name="Layer 1" xmlns="http://www.w3.org/2000/svg" viewBox="0 0 100 100">
  <rect x="29.77" y="24.38" width="35.06" height="4.05"/>
  <rect x="35.16" y="39.21" width="8.09" height="2.7"/>
  <path d="M68,48.45c-.29-.28-.45-.67-.45-1.08s.16-.79.45-1.08l1.04-1.04-8.92-2.68,1.71,5.69.97,3.23.97-.97c.34-.34.79-.52,1.24-.52s.9.17,1.24.52l2.96,2.97,1.91-1.91-3.13-3.13Z"/>
  <path d="M29.77,31.12v16.18h28.94c-.42-1.39-.83-2.78-1.25-4.17-.16-.52-.31-1.04-.47-1.56-.2-.66-.42-1.34.11-1.92.01-.01.03-.03.04-.04.68-.68,1.6-.26,2.39-.03.87.26,1.74.52,2.61.78.9.27,1.79.54,2.69.81v-10.05H29.77ZM45.95,43.26c0,.74-.6,1.35-1.35,1.35h-10.79c-.74,0-1.35-.6-1.35-1.35v-5.39c0-.74.6-1.35,1.35-1.35h10.79c.74,0,1.35.6,1.35,1.35v5.39h0Z"/>
  <path d="M83.72,62.14H9.54v5.39c0,2.98,2.42,5.4,5.4,5.4h26.91c-.32,5.35-2.55,8.09-6.68,8.09h-2.7c-2.23,0-4.05,1.82-4.05,4.05s1.82,4.05,4.05,4.05h35.06c2.23,0,4.05-1.82,4.05-4.05s-1.82-4.05-4.05-4.05h-2.7c-4.13,0-6.36-2.74-6.68-8.09h26.91c2.98,0,5.4-2.42,5.4-5.4v-5.39h-6.74ZM45.95,64.84h8.09c.74,0,1.35.6,1.35,1.35s-.6,1.35-1.35,1.35h-8.09c-.74,0-1.35-.6-1.35-1.35s.6-1.35,1.35-1.35ZM58.27,81.02h-16.53c1.66-1.84,2.64-4.58,2.83-8.09h10.86c.2,3.51,1.17,6.25,2.83,8.09Z"/>
  <path d="M17.63,18.98v40.46h64.73V18.98H17.63ZM73.98,52.53l-3.81,3.82c-.25.25-.6.4-.95.4s-.7-.14-.95-.4l-3.26-3.26-1.91,1.91c-.34.34-.83.47-1.28.35-.46-.12-.83-.47-.96-.92l-1.33-4.43h-31.1c-.74,0-1.35-.6-1.35-1.35v-25.62c0-.74.6-1.35,1.35-1.35h37.76c.74,0,1.35.6,1.35,1.35v18.95l4.44,1.33c.45.14.8.5.92.96s-.02.95-.35,1.28l-1.81,1.81,3.26,3.26c.53.53.53,1.38,0,1.91Z"/>
  <path d="M85.06,10.89H14.94c-2.98,0-5.4,2.42-5.4,5.4v43.15h5.39V17.63c0-.74.6-1.35,1.35-1.35h67.43c.74,0,1.35.6,1.35,1.35v41.81h5.39V16.29c0-2.98-2.42-5.4-5.4-5.4Z"/>
</svg>