<?xml version="1.0" encoding="UTF-8"?>
<svg id="Layer_1" data-name="Layer 1" xmlns="http://www.w3.org/2000/svg" viewBox="0 0 100 100">
  <path d="M73.83,50.61c-.45-.6-1.31-.72-1.91-.27-.29.22-.48.54-.53.9l-.76,5.31c-.02.07-.04.13-.07.2,1.39-1.85,2.51-3.88,3.33-6.04l-.07-.09Z"/>
  <path d="M69.28,57.71c-.06,0-.13,0-.19-.01l-8.1-1.16c-.75-.11-1.26-.8-1.16-1.54h0s.76-5.31.76-5.31c.11-.75-.41-1.44-1.16-1.54-.36-.05-.72.04-1.01.26l-4.29,3.21c-.6.45-1.46.33-1.91-.27h0l-4.91-6.55c-.45-.6-.33-1.46.27-1.91l4.29-3.21c.6-.45.72-1.31.27-1.91-.22-.29-.54-.48-.9-.53l-5.31-.76c-.75-.11-1.26-.8-1.16-1.54,0,0,0,0,0,0l1.16-8.1c.11-.75.8-1.26,1.54-1.16,0,0,0,0,0,0l5.31.76c.55.08,1.09-.18,1.36-.66.29-.47.26-1.08-.08-1.51l-3.21-4.29c-.45-.6-.33-1.46.27-1.91l.77-.58c-1.25-.06-2.51-.03-3.76.1-13.47,1.54-23.15,13.71-21.61,27.18.84,7.34,4.94,13.91,11.16,17.89,2.27,1.41,3.67,3.88,3.7,6.55v5.51c0,2.26,1.83,4.09,4.09,4.09h10.91c2.26,0,4.09-1.83,4.09-4.09v-5.4c.03-2.74,1.46-5.26,3.78-6.71,2.15-1.4,4.07-3.12,5.69-5.1-.21.13-.44.2-.68.2ZM52.3,74.72h-2.73v-4.09h2.73v4.09ZM49.58,67.9c0-3.61-2.22-6.84-5.59-8.13-9.82-3.84-14.67-14.92-10.83-24.74,1.49-3.8,4.15-7.03,7.61-9.21l1.45,2.31c-7.65,4.81-9.95,14.92-5.14,22.57,1.87,2.96,4.63,5.25,7.89,6.53,4.42,1.69,7.34,5.93,7.34,10.67h-2.73Z"/>
  <path d="M45.48,85.63v1.36c0,1.51,1.22,2.73,2.73,2.73h5.46c1.51,0,2.73-1.22,2.73-2.73v-1.36h-10.91Z"/>
  <path d="M36.96,63.81c-.81-.52-1.59-1.09-2.33-1.7-2.06,4.01-6.98,5.59-10.99,3.53-2.73-1.4-4.44-4.21-4.43-7.28,0-4.12,3.08-7.6,7.17-8.11-.5-1.51-.86-3.05-1.08-4.63l-.24,1.13c-.31,1.47-1.76,2.42-3.23,2.11-.35-.07-.69-.22-.99-.42l-2.84-1.95-2.49,2.48,1.95,2.84c.85,1.24.54,2.94-.7,3.79-.3.2-.63.35-.99.42l-3.4.72v3.24l3.4.72c1.47.31,2.42,1.76,2.11,3.23-.07.35-.22.69-.42.99l-1.95,2.82,2.49,2.48,2.83-1.95c1.24-.85,2.94-.54,3.79.7.2.3.35.63.42.99l.71,3.41h3.24l.71-3.4c.31-1.47,1.76-2.42,3.23-2.11.35.07.69.22.99.42l2.83,1.95,2.93-2.93c-.49-1.44-1.46-2.67-2.75-3.49Z"/>
  <rect x="45.48" y="80.18" width="10.91" height="2.73"/>
  <path d="M85,33.79c-2.24-.32-3.79-2.39-3.47-4.63.15-1.07.73-2.04,1.6-2.69l3.2-2.4-3.27-4.36-3.2,2.4c-1.81,1.36-4.37.99-5.73-.82-.65-.87-.93-1.96-.78-3.03l.56-3.96-5.4-.77-.56,3.96c-.32,2.24-2.39,3.79-4.63,3.47-1.07-.15-2.04-.73-2.69-1.6l-2.4-3.2-4.36,3.27,2.4,3.2c1.36,1.81.99,4.37-.82,5.73-.87.65-1.96.93-3.04.78l-3.96-.56-.77,5.4,3.96.56c2.24.32,3.79,2.39,3.47,4.63-.15,1.07-.73,2.04-1.6,2.69l-3.19,2.4,3.27,4.36,3.2-2.4c1.81-1.36,4.37-.99,5.73.82.65.87.93,1.96.78,3.04l-.56,3.96,5.41.77.56-3.96c.32-2.24,2.39-3.79,4.63-3.47,1.07.15,2.04.73,2.69,1.6l2.4,3.19,4.36-3.27-2.4-3.2c-1.36-1.81-.99-4.37.82-5.73.87-.65,1.96-.93,3.03-.78l3.96.56.77-5.4-3.95-.56ZM68.31,42.35c-4.52,0-8.18-3.66-8.18-8.18s3.66-8.18,8.18-8.18,8.18,3.66,8.18,8.18c0,4.52-3.67,8.18-8.18,8.18Z"/>
  <rect x="76.86" y="61.08" width="9.55" height="2.73"/>
  <rect x="78.22" y="67.35" width="2.73" height="10.65" transform="translate(-27.19 87.3) rotate(-50.2)"/>
  <rect x="68.67" y="71.99" width="2.73" height="9.55"/>
  <rect x="11.22" y="32.44" width="11.25" height="2.73" transform="translate(-7.69 5.09) rotate(-14.03)"/>
  <rect x="17.52" y="16.34" width="2.73" height="11.73" transform="translate(-10.16 24.67) rotate(-54.46)"/>
  <rect x="26.36" y="10.44" width="2.73" height="11.26" transform="translate(-3.12 7.37) rotate(-14.34)"/>
</svg>