<?xml version="1.0" encoding="UTF-8"?>
<svg id="Layer_1" data-name="Layer 1" xmlns="http://www.w3.org/2000/svg" viewBox="0 0 100 100">
  <g id="_20" data-name="20">
    <path d="M71.73,46.9H28.27c-3.43,0-6.21,2.78-6.21,6.21v27.94h55.88v-27.94c0-3.43-2.78-6.21-6.21-6.21ZM46.2,68.89c.71.48.91,1.44.43,2.15-.3.45-.79.69-1.29.69-.3,0-.6-.08-.86-.26l-9.31-6.21c-.43-.29-.69-.77-.69-1.29s.26-1,.69-1.29l9.31-6.21c.7-.48,1.67-.28,2.15.43.48.71.28,1.68-.43,2.15l-7.38,4.92,7.38,4.92ZM64.83,65.26l-9.31,6.21c-.26.18-.56.26-.86.26-.5,0-.99-.24-1.29-.69-.48-.71-.28-1.68.43-2.15l7.38-4.92-7.38-4.92c-.71-.48-.91-1.44-.43-2.15.48-.72,1.45-.91,2.15-.43l9.31,6.21c.43.29.69.77.69,1.29s-.26,1-.69,1.29Z"/>
    <path d="M18.95,40.69c0-3.42-2.79-6.21-6.21-6.21s-6.21,2.79-6.21,6.21c0,2.29,1.26,4.27,3.1,5.35v19.49c0,1.72,1.39,3.1,3.1,3.1h6.21v-6.21h-3.1v-16.39c1.85-1.08,3.1-3.06,3.1-5.35Z"/>
    <path d="M50,6.54c-3.42,0-6.21,2.79-6.21,6.21,0,2.29,1.26,4.27,3.1,5.35v25.7h6.21v-25.7c1.85-1.08,3.1-3.06,3.1-5.35,0-3.42-2.79-6.21-6.21-6.21Z"/>
    <path d="M93.46,40.69c0-3.42-2.79-6.21-6.21-6.21s-6.21,2.79-6.21,6.21c0,2.29,1.26,4.27,3.1,5.35v16.39h-3.1v6.21h6.21c1.72,0,3.1-1.39,3.1-3.1v-19.49c1.85-1.08,3.1-3.06,3.1-5.35Z"/>
    <path d="M37.58,28.27h-9.31v-10.18c1.85-1.08,3.1-3.06,3.1-5.35,0-3.42-2.79-6.21-6.21-6.21s-6.21,2.79-6.21,6.21c0,2.29,1.26,4.27,3.1,5.35v13.28c0,1.72,1.39,3.1,3.1,3.1h9.31v9.31h6.21v-12.42c0-1.72-1.39-3.1-3.1-3.1Z"/>
    <path d="M81.05,12.75c0-3.42-2.79-6.21-6.21-6.21s-6.21,2.79-6.21,6.21c0,2.29,1.26,4.27,3.1,5.35v10.18h-9.31c-1.72,0-3.1,1.39-3.1,3.1v12.42h6.21v-9.31h9.31c1.72,0,3.1-1.39,3.1-3.1v-13.28c1.85-1.08,3.1-3.06,3.1-5.35Z"/>
    <path d="M74.84,93.46H25.16c-5.14,0-9.31-4.17-9.31-9.31h68.3c0,5.14-4.17,9.31-9.31,9.31Z"/>
  </g>
</svg>