<?xml version="1.0" encoding="UTF-8"?>
<svg id="Layer_1" data-name="Layer 1" xmlns="http://www.w3.org/2000/svg" viewBox="0 0 100 100">
  <path d="M11.37,75.02h49.11l3.01-21.1c.25-1.72-1.08-3.25-2.82-3.25H11.17c-1.74,0-3.06,1.52-2.82,3.25l3.01,21.1ZM35.92,59.21c2.07,0,3.76,1.68,3.76,3.76s-1.68,3.76-3.76,3.76-3.76-1.68-3.76-3.76c0-2.07,1.68-3.76,3.76-3.76ZM95.11,79.26v3.67c0,.72-.59,1.31-1.31,1.31H6.2c-.72,0-1.31-.59-1.31-1.31v-3.67c0-.72.59-1.31,1.31-1.31h87.6c.72,0,1.31.59,1.31,1.31ZM8.02,87.17h83.95v5.71c0,.4-.33.73-.73.73H8.75c-.4,0-.73-.33-.73-.73v-5.71ZM54.38,47.76H17.46c4.5-5.17,11.12-8.45,18.46-8.45s13.97,3.28,18.46,8.45ZM91.62,23.78c-.46-2.31-1.37-4.45-2.63-6.34l2.47-2.47-4.93-4.93-2.47,2.47c-1.89-1.26-4.03-2.17-6.34-2.63v-3.49h-6.97v3.49c-2.31.46-4.45,1.37-6.34,2.63l-2.47-2.47-4.93,4.93,2.47,2.47c-1.26,1.89-2.17,4.03-2.63,6.34h-3.5v6.97h3.5c.46,2.31,1.37,4.45,2.63,6.34l-2.47,2.47,4.93,4.93,2.47-2.47c1.89,1.26,4.03,2.17,6.34,2.63v3.5h6.97v-3.5c2.31-.46,4.45-1.37,6.34-2.63l2.47,2.47,4.93-4.93-2.47-2.47c1.26-1.89,2.17-4.03,2.63-6.34h3.5v-6.97h-3.49ZM74.24,38.12c-5.99,0-10.85-4.86-10.85-10.85s4.86-10.85,10.85-10.85,10.85,4.86,10.85,10.85c0,5.99-4.86,10.85-10.85,10.85ZM22.69,24.25c0-7.31,5.92-13.23,13.23-13.23s13.23,5.92,13.23,13.23-5.92,13.23-13.23,13.23-13.23-5.92-13.23-13.23ZM85.57,58.05c-.56-.65-1.3-.98-2.15-.98h-11.14c-.85,0-1.59.34-2.15.98-.56.65-.79,1.42-.67,2.27l2.1,14.71h12.58l.29-2.04h3.97c2.19,0,3.98-1.79,3.98-3.98v-4.41c0-2.19-1.79-3.98-3.98-3.98h-2.2l.04-.31c.12-.85-.11-1.62-.67-2.27h0ZM88.4,63.54c.58,0,1.05.48,1.05,1.05v4.41c0,.58-.48,1.05-1.05,1.05h-3.55l.93-6.52h2.62Z"/>
</svg>