<?xml version="1.0" encoding="UTF-8"?>
<svg id="Layer_1" data-name="Layer 1" xmlns="http://www.w3.org/2000/svg" viewBox="0 0 100 100">
  <path d="M83.02,16.09c0-1.08-.88-1.96-1.96-1.96H7.71c-1.08,0-1.96.88-1.96,1.96v8.14h77.27v-8.14ZM11.26,21.99c-1.44,0-2.61-1.17-2.61-2.61s1.17-2.61,2.61-2.61,2.61,1.17,2.61,2.61c0,1.44-1.17,2.61-2.61,2.61ZM20.46,21.99c-1.44,0-2.61-1.17-2.61-2.61s1.17-2.61,2.61-2.61,2.61,1.17,2.61,2.61-1.17,2.61-2.61,2.61ZM77.51,21.99c-1.44,0-2.61-1.17-2.61-2.61s1.17-2.61,2.61-2.61,2.61,1.17,2.61,2.61-1.17,2.61-2.61,2.61Z"/>
  <path d="M56.97,81.28h-5.72v-7.07h-13.71v7.07h-5.72c-1.27,0-2.29,1.03-2.29,2.29s1.03,2.29,2.29,2.29h25.16c1.27,0,2.29-1.03,2.29-2.29s-1.03-2.29-2.29-2.29h0Z"/>
  <path d="M66.55,79.59c0,1.47,1.19,2.66,2.66,2.66h22.39c1.47,0,2.66-1.19,2.66-2.66v-2.26h-27.7v2.26Z"/>
  <path d="M91.59,37.98h-22.39c-1.47,0-2.66,1.19-2.66,2.66v32.11h27.7v-32.11c0-1.47-1.19-2.66-2.66-2.66ZM75.48,51.56c.46,1.18-.12,2.51-1.3,2.97-.27.11-.56.16-.83.16-.92,0-1.78-.55-2.14-1.46l-1.74-4.46c-.21-.54-.21-1.13,0-1.67l1.74-4.46c.46-1.18,1.79-1.76,2.97-1.3,1.18.46,1.76,1.79,1.3,2.97l-1.41,3.62,1.41,3.62ZM83.41,45.56l-1.52,5.66c-.27,1.02-1.2,1.7-2.21,1.7-.2,0-.4-.03-.59-.08-1.22-.33-1.95-1.58-1.62-2.81l1.52-5.66c.33-1.22,1.58-1.95,2.81-1.62,1.22.33,1.95,1.58,1.62,2.81h0ZM91.33,48.77l-1.74,4.46c-.35.91-1.22,1.46-2.14,1.46-.28,0-.56-.05-.83-.16-1.18-.46-1.76-1.79-1.3-2.97l1.41-3.62-1.41-3.62c-.46-1.18.12-2.51,1.3-2.97,1.18-.46,2.51.12,2.97,1.3l1.74,4.46c.21.54.21,1.13,0,1.67h0Z"/>
  <path d="M83.02,33.39v-4.58H5.75v38.86c0,1.08.88,1.96,1.96,1.96h54.25v-28.99c0-4,3.24-7.24,7.24-7.24h13.82ZM16.23,42.98c.44,1.01-.03,2.18-1.03,2.61-.26.11-.52.16-.79.16-.77,0-1.5-.45-1.82-1.2l-1.86-4.29c-.22-.5-.22-1.07,0-1.58l1.86-4.29c.44-1.01,1.6-1.47,2.61-1.03,1.01.44,1.47,1.6,1.03,2.61l-1.52,3.51,1.52,3.51ZM24.7,37.18l-1.62,5.46c-.26.86-1.05,1.42-1.9,1.42-.19,0-.38-.03-.57-.08-1.05-.31-1.65-1.42-1.34-2.47l1.62-5.46c.31-1.05,1.42-1.65,2.47-1.34,1.05.31,1.65,1.42,1.34,2.47ZM33.17,40.26l-1.86,4.29c-.32.75-1.06,1.2-1.82,1.2-.26,0-.53-.05-.79-.16-1.01-.44-1.47-1.6-1.03-2.61l1.52-3.51-1.52-3.51c-.44-1.01.03-2.18,1.03-2.61,1.01-.44,2.17.03,2.61,1.03l1.86,4.29c.22.5.22,1.07,0,1.58Z"/>
</svg>