<?xml version="1.0" encoding="UTF-8"?>
<svg id="Layer_1" data-name="Layer 1" xmlns="http://www.w3.org/2000/svg" viewBox="0 0 100 100">
  <g id="Page-1">
    <g id="_022---Coding-Software" data-name="022---Coding-Software">
      <path id="Shape" d="M68.05,88.91H31.95c-.91,0-1.64.74-1.64,1.64s.74,1.64,1.64,1.64h36.11c.91,0,1.64-.74,1.64-1.64s-.74-1.64-1.64-1.64Z"/>
      <path id="Shape-2" data-name="Shape" d="M86.11,9.31c0-.83-.67-1.5-1.5-1.5H15.4c-.83,0-1.5.67-1.5,1.5v7.52h72.22v-7.52ZM21.41,13.82h-3.01c-.83,0-1.5-.67-1.5-1.5s.67-1.5,1.5-1.5h3.01c.83,0,1.5.67,1.5,1.5s-.67,1.5-1.5,1.5ZM69.56,13.82c-.83,0-1.5-.67-1.5-1.5s.67-1.5,1.5-1.5,1.5.67,1.5,1.5-.67,1.5-1.5,1.5ZM75.58,13.82c-.83,0-1.5-.67-1.5-1.5s.67-1.5,1.5-1.5,1.5.67,1.5,1.5-.67,1.5-1.5,1.5ZM81.6,13.82c-.83,0-1.5-.67-1.5-1.5s.67-1.5,1.5-1.5,1.5.67,1.5,1.5-.67,1.5-1.5,1.5Z"/>
      <path id="Shape-3" data-name="Shape" d="M90.62,18.34h-1.5v43.63c0,2.49-2.02,4.51-4.51,4.51H15.4c-2.49,0-4.51-2.02-4.51-4.51V18.34h-1.5c-.83,0-1.5.67-1.5,1.5v49.65h6.02c.83,0,1.5.67,1.5,1.5s-.67,1.5-1.5,1.5h-6.02v3.01c0,.83.67,1.5,1.5,1.5h81.25c.83,0,1.5-.67,1.5-1.5v-3.01H19.91c-.83,0-1.5-.67-1.5-1.5s.67-1.5,1.5-1.5h72.22V19.84c0-.83-.67-1.5-1.5-1.5h0Z"/>
      <path id="Shape-4" data-name="Shape" d="M15.4,63.47h69.21c.83,0,1.5-.67,1.5-1.5V19.84H13.89v42.13c0,.83.67,1.5,1.5,1.5h0ZM40.97,60.46h-6.02c-.83,0-1.5-.67-1.5-1.5s.67-1.5,1.5-1.5h6.02c.83,0,1.5.67,1.5,1.5s-.67,1.5-1.5,1.5h0ZM63.54,60.46h-16.55c-.83,0-1.5-.67-1.5-1.5s.67-1.5,1.5-1.5h16.55c.83,0,1.5.67,1.5,1.5s-.67,1.5-1.5,1.5ZM71.06,54.44h-28.59c-.83,0-1.5-.67-1.5-1.5s.67-1.5,1.5-1.5h28.59c.83,0,1.5.67,1.5,1.5s-.67,1.5-1.5,1.5ZM40.97,46.92c0-.83.67-1.5,1.5-1.5h3.01c.83,0,1.5.67,1.5,1.5s-.67,1.5-1.5,1.5h-3.01c-.83,0-1.5-.67-1.5-1.5h0ZM72.57,46.92c0,.83-.67,1.5-1.5,1.5h-19.56c-.83,0-1.5-.67-1.5-1.5s.67-1.5,1.5-1.5h19.56c.83,0,1.5.67,1.5,1.5ZM65.05,40.9c0,.83-.67,1.5-1.5,1.5h-28.59c-.83,0-1.5-.67-1.5-1.5s.67-1.5,1.5-1.5h28.59c.83,0,1.5.67,1.5,1.5ZM50.44,25.42c-.57-.59-.56-1.53.02-2.11.58-.58,1.52-.59,2.11-.02l4.51,4.51c.59.59.59,1.54,0,2.13l-4.51,4.51c-.59.57-1.53.56-2.11-.02s-.59-1.52-.02-2.11l3.45-3.45-3.45-3.45ZM41.13,32.71l4.51-9.03c.37-.74,1.28-1.05,2.02-.67s1.05,1.28.67,2.02l-4.51,9.03c-.37.74-1.28,1.05-2.02.67-.74-.37-1.05-1.28-.67-2.02ZM32.39,27.8l4.51-4.51c.59-.57,1.53-.56,2.11.02s.59,1.52.02,2.11l-3.45,3.45,3.45,3.45c.39.38.55.94.41,1.46-.14.53-.55.94-1.07,1.07-.53.14-1.09-.02-1.46-.41l-4.51-4.51c-.59-.59-.59-1.54,0-2.13h0ZM24.42,24.35c0-.83.67-1.5,1.5-1.5s1.5.67,1.5,1.5v34.6c0,.83-.67,1.5-1.5,1.5s-1.5-.67-1.5-1.5V24.35Z"/>
      <path id="Shape-5" data-name="Shape" d="M39.2,80.02c-.29,2.22-1.12,4.33-2.41,6.16h26.41c-1.29-1.83-2.11-3.94-2.4-6.16h-21.61Z"/>
    </g>
  </g>
</svg>