<?xml version="1.0" encoding="UTF-8"?>
<svg id="Layer_1" data-name="Layer 1" xmlns="http://www.w3.org/2000/svg" viewBox="0 0 100 100">
  <path d="M54.1,61.88v-4.1c-6.08,6.08-15.13,6.51-21.64,0v4.38l10.75,9.05,10.89-9.33Z"/>
  <path d="M31.05,74.89l9.19-2.4-9.76-8.2-3.39,1.41,3.96,9.19Z"/>
  <path d="M59.19,65.56l-3.25-1.27-9.62,8.2,8.91,2.4,3.96-9.33Z"/>
  <path d="M48.73,76.16l-5.37-1.41-5.52,1.41,3.54,4.38c.28.42.42.99.28,1.41l-4.38,12.59h12.02l-4.24-12.59c-.14-.42-.14-.99.28-1.41l3.39-4.38Z"/>
  <path d="M92.99,20.58h-27.15c.14,2.83-.42,6.22-1.56,10.18,4.24,2.4,0,14.99-4.1,15.84-.42,1.56-1.41,4.53-3.25,7.5v7.5l18.67,7.21c5.09,1.98,8.49,6.93,8.49,12.3v3.25h8.91c.85,0,1.56-.71,1.56-1.56V22c0-.71-.71-1.41-1.56-1.41h0ZM75.31,54.24h-2.97c-.85,0-1.56-.71-1.56-1.56s.71-1.56,1.56-1.56h2.97c.85,0,1.56.71,1.56,1.56-.14.85-.85,1.56-1.56,1.56ZM75.31,42.36h-2.97c-.85,0-1.56-.71-1.56-1.56s.71-1.56,1.56-1.56h2.97c.85,0,1.56.71,1.56,1.56-.14.85-.85,1.56-1.56,1.56ZM75.31,30.48h-2.97c-.85,0-1.56-.71-1.56-1.56s.71-1.56,1.56-1.56h2.97c.85,0,1.56.71,1.56,1.56-.14.85-.85,1.56-1.56,1.56ZM88.61,65.84h-5.94c-.85,0-1.56-.71-1.56-1.56s.71-1.56,1.56-1.56h5.94c.85,0,1.56.71,1.56,1.56s-.71,1.56-1.56,1.56ZM88.61,54.24h-5.94c-.85,0-1.56-.71-1.56-1.56s.71-1.56,1.56-1.56h5.94c.85,0,1.56.71,1.56,1.56s-.71,1.56-1.56,1.56ZM88.61,42.36h-5.94c-.85,0-1.56-.71-1.56-1.56s.71-1.56,1.56-1.56h5.94c.85,0,1.56.71,1.56,1.56s-.71,1.56-1.56,1.56ZM88.61,30.48h-5.94c-.85,0-1.56-.71-1.56-1.56s.71-1.56,1.56-1.56h5.94c.85,0,1.56.71,1.56,1.56s-.71,1.56-1.56,1.56Z"/>
  <path d="M34.73,77.01l-4.24,1.13c-.71.14-1.41-.14-1.7-.85l-4.38-10.61-12.3,4.81c-3.96,1.41-6.65,5.23-6.65,9.48v13.58h28.71l4.38-12.73-3.82-4.81Z"/>
  <path d="M23.55,33.45c-.71.99,1.7,10.18,3.54,10.18.85-.28,1.84.42,1.98,1.13.14.57,2.83,14.42,14.28,14.85,11.6-.42,14.28-14.14,14.28-14.85.14-.85.99-1.41,1.84-1.13,1.84,0,4.38-9.05,3.68-10.18-.14-.28-.57-.28-.57-.28-.99,0-1.7-.99-1.41-1.98,2.97-9.33,1.84-13.72.28-15.84-1.7-2.26-4.24-2.4-4.38-2.4-.57,0-1.13-.42-1.41-.99-1.98-5.09-7.64-6.51-13.29-6.51-13.15,0-20.93,8.34-16.83,25.88.14.42,0,.85-.28,1.27-.57.71-1.27.28-1.7.85Z"/>
  <path d="M81.11,94.55v-13.58c0-4.24-2.69-8.06-6.51-9.48l-12.73-4.95-4.53,10.75c-.28.71-.99,1.13-1.7.85l-3.82-1.13-3.68,4.81,4.38,12.73h28.57Z"/>
</svg>