<?xml version="1.0" encoding="utf-8"?>
<!-- Generator: Adobe Illustrator 27.5.0, SVG Export Plug-In . SVG Version: 6.00 Build 0)  -->
<svg version="1.1" id="Layer_1" xmlns="http://www.w3.org/2000/svg" xmlns:xlink="http://www.w3.org/1999/xlink" x="0px" y="0px"
	 viewBox="0 0 7000 4000" style="enable-background:new 0 0 7000 4000;" xml:space="preserve">
<g>
	<g>
		<defs>
			<rect id="SVGID_1_" x="0.962" y="1.144" width="6997.998" height="3998.856"/>
		</defs>
		<clipPath id="SVGID_00000173866126082217784080000000986525451205461646_">
			<use xlink:href="#SVGID_1_"  style="overflow:visible;"/>
		</clipPath>
		
			<linearGradient id="SVGID_00000039103808196223589660000010298557005237941179_" gradientUnits="userSpaceOnUse" x1="13800.1836" y1="40.5619" x2="4302.4292" y2="1847.8717">
			<stop  offset="0" style="stop-color:#890028"/>
			<stop  offset="1" style="stop-color:#0C0C0E"/>
		</linearGradient>
		
			<rect x="0.962" y="1.144" style="clip-path:url(#SVGID_00000173866126082217784080000000986525451205461646_);fill:url(#SVGID_00000039103808196223589660000010298557005237941179_);" width="6997.998" height="3998.856"/>
	</g>
	<g>
		<defs>
			<path id="SVGID_00000044878996506516504460000011572580959242425756_" d="M2177.103,1.144H0.962v2127.633
				c219.488,112.76,468.356,176.399,732.095,176.399c886.022,0,1604.29-718.265,1604.29-1604.29
				C2337.347,450.026,2279.766,212.614,2177.103,1.144"/>
		</defs>
		<clipPath id="SVGID_00000146486120612441403370000014633639076515384244_">
			<use xlink:href="#SVGID_00000044878996506516504460000011572580959242425756_"  style="overflow:visible;"/>
		</clipPath>
		
			<linearGradient id="SVGID_00000062903335019246205890000004013156844039644073_" gradientUnits="userSpaceOnUse" x1="4186.7554" y1="2613.2119" x2="-30.7877" y2="572.5732">
			<stop  offset="0" style="stop-color:#890028"/>
			<stop  offset="1" style="stop-color:#0C0C0E"/>
		</linearGradient>
		
			<rect x="0.962" y="1.144" style="clip-path:url(#SVGID_00000146486120612441403370000014633639076515384244_);fill:url(#SVGID_00000062903335019246205890000004013156844039644073_);" width="2336.385" height="2304.032"/>
	</g>
	<g>
		<defs>
			<path id="SVGID_00000165220227973160408290000010181322166281479557_" d="M2337.347,700.886
				c0,886.025-718.267,1604.29-1604.29,1604.29c-263.739,0-512.607-63.639-732.095-176.399v1114.737
				c233.729,89.138,487.364,137.958,752.402,137.958c1166.41,0,2111.976-945.564,2111.976-2111.977
				c0-475.974-157.457-915.173-423.12-1268.351h-265.117C2279.766,212.614,2337.347,450.026,2337.347,700.886"/>
		</defs>
		<clipPath id="SVGID_00000017516407266094617960000013196904917157943453_">
			<use xlink:href="#SVGID_00000165220227973160408290000010181322166281479557_"  style="overflow:visible;"/>
		</clipPath>
		
			<linearGradient id="SVGID_00000122709801319671373880000002565282358374710927_" gradientUnits="userSpaceOnUse" x1="5356.7808" y1="3267.9443" x2="505.0703" y2="1318.3754">
			<stop  offset="0" style="stop-color:#890028"/>
			<stop  offset="1" style="stop-color:#0C0C0E"/>
		</linearGradient>
		
			<rect x="0.962" y="1.144" style="clip-path:url(#SVGID_00000017516407266094617960000013196904917157943453_);fill:url(#SVGID_00000122709801319671373880000002565282358374710927_);" width="2864.378" height="3380.327"/>
	</g>
	<g>
		<defs>
			<path id="SVGID_00000129178827795459345080000005452178865787627139_" d="M2865.341,1269.495
				c0,1166.413-945.566,2111.977-2111.976,2111.977c-265.038,0-518.673-48.82-752.402-137.958V4000h2104.782
				c799.656-421.907,1344.72-1261.597,1344.72-2228.595c0-690.126-277.621-1315.41-727.276-1770.261h-280.968
				C2707.884,354.322,2865.341,793.521,2865.341,1269.495"/>
		</defs>
		<clipPath id="SVGID_00000178890745754662905740000010332385718149694633_">
			<use xlink:href="#SVGID_00000129178827795459345080000005452178865787627139_"  style="overflow:visible;"/>
		</clipPath>
		
			<linearGradient id="SVGID_00000071555039305726110440000003726689038141401250_" gradientUnits="userSpaceOnUse" x1="6425.981" y1="3890.9541" x2="1300.077" y2="1829.3868">
			<stop  offset="0" style="stop-color:#890028"/>
			<stop  offset="1" style="stop-color:#0C0C0E"/>
		</linearGradient>
		
			<rect x="0.962" y="1.144" style="clip-path:url(#SVGID_00000178890745754662905740000010332385718149694633_);fill:url(#SVGID_00000071555039305726110440000003726689038141401250_);" width="3449.502" height="3998.856"/>
	</g>
	<g>
		<defs>
			<path id="SVGID_00000140718925463450224520000002047241466062982567_" d="M2723.189,1.144
				c449.655,454.851,727.276,1080.135,727.276,1770.261c0,966.998-545.064,1806.688-1344.72,2228.595h873.499
				c1054.694-492.966,1785.431-1563.382,1785.431-2804.47c0-423.372-85.033-826.883-238.955-1194.386H2723.189z"/>
		</defs>
		<clipPath id="SVGID_00000157300130655612640840000000939499854964190372_">
			<use xlink:href="#SVGID_00000140718925463450224520000002047241466062982567_"  style="overflow:visible;"/>
		</clipPath>
		
			<linearGradient id="SVGID_00000045616135669002464830000006979386063022222213_" gradientUnits="userSpaceOnUse" x1="6742.4038" y1="2071.2512" x2="2651.7827" y2="1983.829">
			<stop  offset="0" style="stop-color:#890028"/>
			<stop  offset="1" style="stop-color:#0C0C0E"/>
		</linearGradient>
		
			<rect x="2105.744" y="1.144" style="clip-path:url(#SVGID_00000157300130655612640840000000939499854964190372_);fill:url(#SVGID_00000045616135669002464830000006979386063022222213_);" width="2658.929" height="3998.856"/>
	</g>
	<g>
		<defs>
			<path id="SVGID_00000088119178987201455100000000913484375530364297_" d="M4525.719,1.144
				c153.922,367.503,238.955,771.014,238.955,1194.386c0,1241.089-730.737,2311.504-1785.431,2804.47h766.636
				c1169.469-441.614,2001.173-1571.416,2001.173-2895.471c0-388.703-71.681-760.662-202.54-1103.385H4525.719z"/>
		</defs>
		<clipPath id="SVGID_00000099637879186872302980000002983769369718912410_">
			<use xlink:href="#SVGID_00000088119178987201455100000000913484375530364297_"  style="overflow:visible;"/>
		</clipPath>
		
			<linearGradient id="SVGID_00000135684550094400526830000006583928683190863249_" gradientUnits="userSpaceOnUse" x1="7803.0815" y1="2073.8418" x2="3772.5027" y2="1987.9912">
			<stop  offset="0" style="stop-color:#890028"/>
			<stop  offset="1" style="stop-color:#0C0C0E"/>
		</linearGradient>
		
			<rect x="2979.243" y="1.144" style="clip-path:url(#SVGID_00000099637879186872302980000002983769369718912410_);fill:url(#SVGID_00000135684550094400526830000006583928683190863249_);" width="2767.809" height="3998.856"/>
	</g>
	<g>
		<defs>
			<path id="SVGID_00000113346673314046425570000004893069227143713960_" d="M5544.513,1.144
				c130.858,342.723,202.54,714.683,202.54,1103.385c0,1324.055-831.704,2453.857-2001.173,2895.471h1365.786
				c835.933-258.496,1520.412-861.783,1887.295-1643.706V1.144H5544.513z"/>
		</defs>
		<clipPath id="SVGID_00000177446653437114711630000013829954903441340820_">
			<use xlink:href="#SVGID_00000113346673314046425570000004893069227143713960_"  style="overflow:visible;"/>
		</clipPath>
		
			<linearGradient id="SVGID_00000067953633040493813130000004275140601584350612_" gradientUnits="userSpaceOnUse" x1="9414.7568" y1="2101.7439" x2="4678.3608" y2="1983.2009">
			<stop  offset="0" style="stop-color:#890028"/>
			<stop  offset="1" style="stop-color:#0C0C0E"/>
		</linearGradient>
		
			<rect x="3745.879" y="1.144" style="clip-path:url(#SVGID_00000177446653437114711630000013829954903441340820_);fill:url(#SVGID_00000067953633040493813130000004275140601584350612_);" width="3253.081" height="3998.856"/>
	</g>
</g>
</svg>
