<?xml version="1.0" encoding="utf-8"?>
<!-- Generator: Adobe Illustrator 27.5.0, SVG Export Plug-In . SVG Version: 6.00 Build 0)  -->
<svg version="1.1" id="Layer_1" xmlns="http://www.w3.org/2000/svg" xmlns:xlink="http://www.w3.org/1999/xlink" x="0px" y="0px"
	 viewBox="0 0 7000 4000" style="enable-background:new 0 0 7000 4000;" xml:space="preserve">
<g>
	
		<linearGradient id="SVGID_1_" gradientUnits="userSpaceOnUse" x1="1921.0938" y1="611.6212" x2="7843.1782" y2="5293.9912" gradientTransform="matrix(0.971 0 0 -0.971 0.1492 3886.1978)">
		<stop  offset="0" style="stop-color:#000000"/>
		<stop  offset="1" style="stop-color:#7A0524"/>
	</linearGradient>
	<rect x="0" y="0.001" style="fill-rule:evenodd;clip-rule:evenodd;fill:url(#SVGID_1_);" width="7000" height="3999.999"/>
	
		<linearGradient id="SVGID_00000033337279524932374450000010620762317948202882_" gradientUnits="userSpaceOnUse" x1="294.1646" y1="1259.9729" x2="2500.77" y2="2003.1522" gradientTransform="matrix(0.971 0 0 -0.971 0.1492 3886.1978)">
		<stop  offset="0" style="stop-color:#000000"/>
		<stop  offset="1" style="stop-color:#8C0025"/>
	</linearGradient>
	<path style="fill-rule:evenodd;clip-rule:evenodd;fill:url(#SVGID_00000033337279524932374450000010620762317948202882_);" d="
		M4507.246,4000c-683.15-195.993-1687.476-546.64-2574.779-1101.167C884.673,2243.948,0,1304.704,0,0.001v2460.514
		C405.868,3038.132,1031.745,3660.531,1962.283,4000H4507.246z"/>
	
		<linearGradient id="SVGID_00000146460239687170264100000018011881866701489341_" gradientUnits="userSpaceOnUse" x1="273.1444" y1="1324.0892" x2="2075.2974" y2="1679.4708" gradientTransform="matrix(0.971 0 0 -0.971 0.1492 3886.1978)">
		<stop  offset="0" style="stop-color:#000000"/>
		<stop  offset="1" style="stop-color:#8C0025"/>
	</linearGradient>
	<path style="fill-rule:evenodd;clip-rule:evenodd;fill:url(#SVGID_00000146460239687170264100000018011881866701489341_);" d="
		M4507.246,4000c-683.15-195.993-1687.476-546.64-2574.779-1101.167C998.061,2314.835,193.44,1504.68,30.203,410.899
		C19.955,431.743,9.861,452.433,0,472.93v1102.521C362.903,2236.678,1173.402,3349.447,2743.778,4000H4507.246z"/>
	
		<linearGradient id="SVGID_00000075124670252836223090000006213668527983764137_" gradientUnits="userSpaceOnUse" x1="-575.274" y1="-627.4976" x2="1139.6935" y2="781.8745" gradientTransform="matrix(0.971 0 0 -0.971 0.1492 3886.1978)">
		<stop  offset="0" style="stop-color:#000000"/>
		<stop  offset="1" style="stop-color:#8C0025"/>
	</linearGradient>
	<path style="fill-rule:evenodd;clip-rule:evenodd;fill:url(#SVGID_00000075124670252836223090000006213668527983764137_);" d="
		M1962.283,4000C1031.745,3660.531,405.868,3038.132,0,2460.515V4000H1962.283z"/>
	
		<linearGradient id="SVGID_00000169552846099091260460000015311264525386423700_" gradientUnits="userSpaceOnUse" x1="-590.759" y1="-602.4976" x2="1005.2488" y2="671.5057" gradientTransform="matrix(0.971 0 0 -0.971 0.1492 3886.1978)">
		<stop  offset="0" style="stop-color:#000000"/>
		<stop  offset="1" style="stop-color:#8C0025"/>
	</linearGradient>
	<path style="fill-rule:evenodd;clip-rule:evenodd;fill:url(#SVGID_00000169552846099091260460000015311264525386423700_);" d="
		M1962.283,4000C1031.745,3660.531,405.868,3038.132,0,2460.515v858.148c243.289,218.424,576.608,464.807,1012.872,681.336
		L1962.283,4000L1962.283,4000z"/>
	
		<linearGradient id="SVGID_00000044154495448289463680000017627330406668356769_" gradientUnits="userSpaceOnUse" x1="427.1391" y1="2104.8328" x2="2126.7444" y2="3316.3081" gradientTransform="matrix(0.971 0 0 -0.971 0.1492 3886.1978)">
		<stop  offset="0" style="stop-color:#000000"/>
		<stop  offset="1" style="stop-color:#8C0025"/>
	</linearGradient>
	<path style="fill-rule:evenodd;clip-rule:evenodd;fill:url(#SVGID_00000044154495448289463680000017627330406668356769_);" d="
		M0,0.001c0,1304.702,884.673,2243.947,1932.467,2898.832c0,0-1087.008-1328.37,16.165-2898.832H0z"/>
	
		<linearGradient id="SVGID_00000085218761284191211590000006120970247854787253_" gradientUnits="userSpaceOnUse" x1="593.809" y1="1848.4806" x2="1902.3865" y2="2745.2002" gradientTransform="matrix(0.971 0 0 -0.971 0.1492 3886.1978)">
		<stop  offset="0" style="stop-color:#000000"/>
		<stop  offset="1" style="stop-color:#8C0025"/>
	</linearGradient>
	<path style="fill-rule:evenodd;clip-rule:evenodd;fill:url(#SVGID_00000085218761284191211590000006120970247854787253_);" d="
		M739.458,1902.468c331.153,387.694,747.269,717.766,1193.009,996.364c0,0-1087.008-1328.37,16.165-2898.832h-854.16
		C840.393,444.504,548.338,1162.696,739.458,1902.468L739.458,1902.468z"/>
	
		<linearGradient id="SVGID_00000125600844331431500580000001910812314062169523_" gradientUnits="userSpaceOnUse" x1="1132.8782" y1="2363.9451" x2="3519.2671" y2="2765.447" gradientTransform="matrix(0.971 0 0 -0.971 0.1492 3886.1978)">
		<stop  offset="0" style="stop-color:#000000"/>
		<stop  offset="1" style="stop-color:#8C0025"/>
	</linearGradient>
	<path style="fill-rule:evenodd;clip-rule:evenodd;fill:url(#SVGID_00000125600844331431500580000001910812314062169523_);" d="
		M1948.632,0.001c-1103.173,1570.462-16.165,2898.832-16.165,2898.832S1682.449,918.131,4282.442,0.001H1948.632z"/>
	
		<linearGradient id="SVGID_00000016064212188528728450000006795456588203920778_" gradientUnits="userSpaceOnUse" x1="1151.6605" y1="2228.7825" x2="3139.1743" y2="2620.3672" gradientTransform="matrix(0.971 0 0 -0.971 0.1492 3886.1978)">
		<stop  offset="0" style="stop-color:#000000"/>
		<stop  offset="1" style="stop-color:#8C0025"/>
	</linearGradient>
	<path style="fill-rule:evenodd;clip-rule:evenodd;fill:url(#SVGID_00000016064212188528728450000006795456588203920778_);" d="
		M1472.341,1749.44c81.406,647.15,411.514,1087.322,455.176,1143.128l4.563,2.823c-9.591-86.82-190.269-1998.22,2350.362-2895.389
		h-1192.7C2049.219,541.42,1633.876,1230.027,1472.341,1749.44L1472.341,1749.44z"/>
</g>
</svg>
