<?xml version="1.0" encoding="UTF-8"?>
<svg xmlns="http://www.w3.org/2000/svg" xmlns:xlink="http://www.w3.org/1999/xlink" width="4001" height="2001" viewBox="0 0 4001 2001">
<defs>
<clipPath id="clip-0">
<path clip-rule="nonzero" d="M 0.5 0.5 L 4000.5 0.5 L 4000.5 2000.5 L 0.5 2000.5 Z M 0.5 0.5 "/>
</clipPath>
<linearGradient id="linear-pattern-0" gradientUnits="userSpaceOnUse" x1="-0.00000004371" y1="0" x2="1" y2="0" gradientTransform="matrix(-0.00008742, -2000, 2000, -0.00008742, 2000.5, 2000.5)">
<stop offset="0" stop-color="rgb(99.475098%, 92.660522%, 90.052795%)" stop-opacity="1"/>
<stop offset="0.5" stop-color="rgb(99.475098%, 92.660522%, 90.052795%)" stop-opacity="1"/>
<stop offset="0.625" stop-color="rgb(99.475098%, 92.660522%, 90.052795%)" stop-opacity="1"/>
<stop offset="0.65625" stop-color="rgb(99.475098%, 92.660522%, 90.052795%)" stop-opacity="1"/>
<stop offset="0.671875" stop-color="rgb(99.475098%, 92.660522%, 90.052795%)" stop-opacity="1"/>
<stop offset="0.679687" stop-color="rgb(99.462891%, 92.492676%, 89.828491%)" stop-opacity="1"/>
<stop offset="0.6875" stop-color="rgb(99.449158%, 92.29126%, 89.559937%)" stop-opacity="1"/>
<stop offset="0.691406" stop-color="rgb(99.432373%, 92.0578%, 89.250183%)" stop-opacity="1"/>
<stop offset="0.695312" stop-color="rgb(99.417114%, 91.854858%, 88.983154%)" stop-opacity="1"/>
<stop offset="0.699219" stop-color="rgb(99.403381%, 91.654968%, 88.717651%)" stop-opacity="1"/>
<stop offset="0.703125" stop-color="rgb(99.388123%, 91.453552%, 88.452148%)" stop-opacity="1"/>
<stop offset="0.710937" stop-color="rgb(99.388123%, 91.453552%, 88.452148%)" stop-opacity="1"/>
<stop offset="0.714844" stop-color="rgb(99.37439%, 91.253662%, 88.188171%)" stop-opacity="1"/>
<stop offset="0.71875" stop-color="rgb(99.359131%, 91.052246%, 87.921143%)" stop-opacity="1"/>
<stop offset="0.722656" stop-color="rgb(99.345398%, 90.852356%, 87.658691%)" stop-opacity="1"/>
<stop offset="0.726562" stop-color="rgb(99.330139%, 90.65094%, 87.393188%)" stop-opacity="1"/>
<stop offset="0.734375" stop-color="rgb(99.319458%, 90.489197%, 87.181091%)" stop-opacity="1"/>
<stop offset="0.742187" stop-color="rgb(99.304199%, 90.287781%, 86.917114%)" stop-opacity="1"/>
<stop offset="0.746094" stop-color="rgb(99.287415%, 90.05127%, 86.605835%)" stop-opacity="1"/>
<stop offset="0.75" stop-color="rgb(99.272156%, 89.849854%, 86.343384%)" stop-opacity="1"/>
<stop offset="0.753906" stop-color="rgb(99.258423%, 89.651489%, 86.082458%)" stop-opacity="1"/>
<stop offset="0.757812" stop-color="rgb(99.243164%, 89.450073%, 85.820007%)" stop-opacity="1"/>
<stop offset="0.765625" stop-color="rgb(99.232483%, 89.289856%, 85.610962%)" stop-opacity="1"/>
<stop offset="0.773437" stop-color="rgb(99.217224%, 89.091492%, 85.353088%)" stop-opacity="1"/>
<stop offset="0.777344" stop-color="rgb(99.200439%, 88.853455%, 85.041809%)" stop-opacity="1"/>
<stop offset="0.78125" stop-color="rgb(99.185181%, 88.653564%, 84.780884%)" stop-opacity="1"/>
<stop offset="0.785156" stop-color="rgb(99.171448%, 88.4552%, 84.52301%)" stop-opacity="1"/>
<stop offset="0.789062" stop-color="rgb(99.157715%, 88.25531%, 84.263611%)" stop-opacity="1"/>
<stop offset="0.796875" stop-color="rgb(99.145508%, 88.098145%, 84.060669%)" stop-opacity="1"/>
<stop offset="0.804687" stop-color="rgb(99.131775%, 87.901306%, 83.804321%)" stop-opacity="1"/>
<stop offset="0.808594" stop-color="rgb(99.113464%, 87.658691%, 83.493042%)" stop-opacity="1"/>
<stop offset="0.8125" stop-color="rgb(99.099731%, 87.460327%, 83.235168%)" stop-opacity="1"/>
<stop offset="0.820312" stop-color="rgb(99.087524%, 87.307739%, 83.03833%)" stop-opacity="1"/>
<stop offset="0.828125" stop-color="rgb(99.073792%, 87.107849%, 82.780457%)" stop-opacity="1"/>
<stop offset="0.832031" stop-color="rgb(99.055481%, 86.86676%, 82.469177%)" stop-opacity="1"/>
<stop offset="0.835937" stop-color="rgb(99.041748%, 86.66687%, 82.214355%)" stop-opacity="1"/>
<stop offset="0.839844" stop-color="rgb(99.015808%, 86.315918%, 81.762695%)" stop-opacity="1"/>
<stop offset="0.84375" stop-color="rgb(98.989868%, 85.964966%, 81.311035%)" stop-opacity="1"/>
<stop offset="0.847656" stop-color="rgb(98.973083%, 85.723877%, 81.002808%)" stop-opacity="1"/>
<stop offset="0.851562" stop-color="rgb(98.954773%, 85.482788%, 80.69458%)" stop-opacity="1"/>
<stop offset="0.855469" stop-color="rgb(98.928833%, 85.128784%, 80.24292%)" stop-opacity="1"/>
<stop offset="0.859375" stop-color="rgb(98.902893%, 84.773254%, 79.79126%)" stop-opacity="1"/>
<stop offset="0.863281" stop-color="rgb(98.88916%, 84.573364%, 79.537964%)" stop-opacity="1"/>
<stop offset="0.867187" stop-color="rgb(98.873901%, 84.375%, 79.286194%)" stop-opacity="1"/>
<stop offset="0.871094" stop-color="rgb(98.857117%, 84.143066%, 78.991699%)" stop-opacity="1"/>
<stop offset="0.875" stop-color="rgb(98.840332%, 83.909607%, 78.695679%)" stop-opacity="1"/>
<stop offset="0.878906" stop-color="rgb(98.814392%, 83.551025%, 78.242493%)" stop-opacity="1"/>
<stop offset="0.882812" stop-color="rgb(98.786926%, 83.190918%, 77.789307%)" stop-opacity="1"/>
<stop offset="0.886719" stop-color="rgb(98.770142%, 82.962036%, 77.502441%)" stop-opacity="1"/>
<stop offset="0.890625" stop-color="rgb(98.753357%, 82.73468%, 77.215576%)" stop-opacity="1"/>
<stop offset="0.894531" stop-color="rgb(98.727417%, 82.371521%, 76.76239%)" stop-opacity="1"/>
<stop offset="0.898437" stop-color="rgb(98.701477%, 82.009888%, 76.307678%)" stop-opacity="1"/>
<stop offset="0.902344" stop-color="rgb(98.684692%, 81.787109%, 76.029968%)" stop-opacity="1"/>
<stop offset="0.90625" stop-color="rgb(98.667908%, 81.562805%, 75.752258%)" stop-opacity="1"/>
<stop offset="0.910156" stop-color="rgb(98.640442%, 81.19812%, 75.297546%)" stop-opacity="1"/>
<stop offset="0.914062" stop-color="rgb(98.614502%, 80.831909%, 74.842834%)" stop-opacity="1"/>
<stop offset="0.917969" stop-color="rgb(98.597717%, 80.615234%, 74.572754%)" stop-opacity="1"/>
<stop offset="0.921875" stop-color="rgb(98.582458%, 80.397034%, 74.304199%)" stop-opacity="1"/>
<stop offset="0.925781" stop-color="rgb(98.554993%, 80.029297%, 73.849487%)" stop-opacity="1"/>
<stop offset="0.929687" stop-color="rgb(98.527527%, 79.66156%, 73.396301%)" stop-opacity="1"/>
<stop offset="0.933594" stop-color="rgb(98.512268%, 79.449463%, 73.135376%)" stop-opacity="1"/>
<stop offset="0.9375" stop-color="rgb(98.497009%, 79.23584%, 72.872925%)" stop-opacity="1"/>
<stop offset="0.941406" stop-color="rgb(98.469543%, 78.865051%, 72.418213%)" stop-opacity="1"/>
<stop offset="0.945312" stop-color="rgb(98.442078%, 78.494263%, 71.965027%)" stop-opacity="1"/>
<stop offset="0.949219" stop-color="rgb(98.425293%, 78.286743%, 71.711731%)" stop-opacity="1"/>
<stop offset="0.953125" stop-color="rgb(98.410034%, 78.079224%, 71.458435%)" stop-opacity="1"/>
<stop offset="0.957031" stop-color="rgb(98.396301%, 77.886963%, 71.224976%)" stop-opacity="1"/>
<stop offset="0.960937" stop-color="rgb(98.382568%, 77.694702%, 70.98999%)" stop-opacity="1"/>
<stop offset="0.964844" stop-color="rgb(98.353577%, 77.319336%, 70.535278%)" stop-opacity="1"/>
<stop offset="0.96875" stop-color="rgb(98.326111%, 76.94397%, 70.082092%)" stop-opacity="1"/>
<stop offset="0.972656" stop-color="rgb(98.310852%, 76.74408%, 69.841003%)" stop-opacity="1"/>
<stop offset="0.976562" stop-color="rgb(98.297119%, 76.542664%, 69.598389%)" stop-opacity="1"/>
<stop offset="0.980469" stop-color="rgb(98.268127%, 76.164246%, 69.142151%)" stop-opacity="1"/>
<stop offset="0.984375" stop-color="rgb(98.240662%, 75.787354%, 68.688965%)" stop-opacity="1"/>
<stop offset="0.988281" stop-color="rgb(98.225403%, 75.592041%, 68.455505%)" stop-opacity="1"/>
<stop offset="0.992187" stop-color="rgb(98.21167%, 75.396729%, 68.222046%)" stop-opacity="1"/>
<stop offset="0.996094" stop-color="rgb(98.182678%, 75.015259%, 67.765808%)" stop-opacity="1"/>
<stop offset="1" stop-color="rgb(98.153687%, 74.633789%, 67.312622%)" stop-opacity="1"/>
</linearGradient>
<clipPath id="clip-1">
<path clip-rule="nonzero" d="M 0 0 L 4001 0 L 4001 1 L 0 1 Z M 4000 1 L 4001 1 L 4001 2000 L 4000 2000 Z M 0 1 L 1 1 L 1 2000 L 0 2000 Z M 0 2000 L 4001 2000 L 4001 2001 L 0 2001 Z M 0 2000 "/>
</clipPath>
<radialGradient id="radial-pattern-0" gradientUnits="userSpaceOnUse" cx="0" cy="0" fx="0" fy="0" r="1581.61" gradientTransform="matrix(1, 0, 0, 1, 2000.5, 1000.5)">
<stop offset="0" stop-color="rgb(100%, 100%, 100%)" stop-opacity="1"/>
<stop offset="0.5" stop-color="rgb(100%, 99.992371%, 99.858093%)" stop-opacity="1"/>
<stop offset="0.503906" stop-color="rgb(100%, 99.977112%, 99.569702%)" stop-opacity="1"/>
<stop offset="0.507812" stop-color="rgb(100%, 99.961853%, 99.278259%)" stop-opacity="1"/>
<stop offset="0.511719" stop-color="rgb(100%, 99.94812%, 98.991394%)" stop-opacity="1"/>
<stop offset="0.515625" stop-color="rgb(100%, 99.932861%, 98.701477%)" stop-opacity="1"/>
<stop offset="0.519531" stop-color="rgb(100%, 99.917603%, 98.413086%)" stop-opacity="1"/>
<stop offset="0.523438" stop-color="rgb(100%, 99.90387%, 98.123169%)" stop-opacity="1"/>
<stop offset="0.527344" stop-color="rgb(100%, 99.888611%, 97.833252%)" stop-opacity="1"/>
<stop offset="0.53125" stop-color="rgb(100%, 99.873352%, 97.546387%)" stop-opacity="1"/>
<stop offset="0.535156" stop-color="rgb(100%, 99.859619%, 97.25647%)" stop-opacity="1"/>
<stop offset="0.539062" stop-color="rgb(100%, 99.84436%, 96.966553%)" stop-opacity="1"/>
<stop offset="0.542969" stop-color="rgb(100%, 99.829102%, 96.678162%)" stop-opacity="1"/>
<stop offset="0.546875" stop-color="rgb(100%, 99.815369%, 96.389771%)" stop-opacity="1"/>
<stop offset="0.550781" stop-color="rgb(100%, 99.80011%, 96.098328%)" stop-opacity="1"/>
<stop offset="0.554688" stop-color="rgb(100%, 99.786377%, 95.811462%)" stop-opacity="1"/>
<stop offset="0.558594" stop-color="rgb(100%, 99.771118%, 95.52002%)" stop-opacity="1"/>
<stop offset="0.5625" stop-color="rgb(100%, 99.755859%, 95.233154%)" stop-opacity="1"/>
<stop offset="0.566406" stop-color="rgb(100%, 99.742126%, 94.944763%)" stop-opacity="1"/>
<stop offset="0.570312" stop-color="rgb(100%, 99.726868%, 94.65332%)" stop-opacity="1"/>
<stop offset="0.574219" stop-color="rgb(100%, 99.711609%, 94.366455%)" stop-opacity="1"/>
<stop offset="0.578125" stop-color="rgb(100%, 99.697876%, 94.076538%)" stop-opacity="1"/>
<stop offset="0.582031" stop-color="rgb(100%, 99.682617%, 93.786621%)" stop-opacity="1"/>
<stop offset="0.585938" stop-color="rgb(100%, 99.667358%, 93.49823%)" stop-opacity="1"/>
<stop offset="0.589844" stop-color="rgb(100%, 99.6521%, 93.208313%)" stop-opacity="1"/>
<stop offset="0.59375" stop-color="rgb(100%, 99.638367%, 92.918396%)" stop-opacity="1"/>
<stop offset="0.597656" stop-color="rgb(100%, 99.623108%, 92.631531%)" stop-opacity="1"/>
<stop offset="0.601562" stop-color="rgb(100%, 99.609375%, 92.341614%)" stop-opacity="1"/>
<stop offset="0.605469" stop-color="rgb(100%, 99.594116%, 92.053223%)" stop-opacity="1"/>
<stop offset="0.609375" stop-color="rgb(100%, 99.578857%, 91.764832%)" stop-opacity="1"/>
<stop offset="0.613281" stop-color="rgb(100%, 99.565125%, 91.473389%)" stop-opacity="1"/>
<stop offset="0.617188" stop-color="rgb(100%, 99.549866%, 91.186523%)" stop-opacity="1"/>
<stop offset="0.621094" stop-color="rgb(100%, 99.534607%, 90.896606%)" stop-opacity="1"/>
<stop offset="0.625" stop-color="rgb(100%, 99.520874%, 90.606689%)" stop-opacity="1"/>
<stop offset="0.628906" stop-color="rgb(100%, 99.505615%, 90.319824%)" stop-opacity="1"/>
<stop offset="0.632812" stop-color="rgb(100%, 99.490356%, 90.028381%)" stop-opacity="1"/>
<stop offset="0.636719" stop-color="rgb(100%, 99.476624%, 89.741516%)" stop-opacity="1"/>
<stop offset="0.640625" stop-color="rgb(100%, 99.461365%, 89.451599%)" stop-opacity="1"/>
<stop offset="0.644531" stop-color="rgb(100%, 99.446106%, 89.161682%)" stop-opacity="1"/>
<stop offset="0.648438" stop-color="rgb(100%, 99.432373%, 88.873291%)" stop-opacity="1"/>
<stop offset="0.652344" stop-color="rgb(100%, 99.417114%, 88.5849%)" stop-opacity="1"/>
<stop offset="0.65625" stop-color="rgb(100%, 99.401855%, 88.293457%)" stop-opacity="1"/>
<stop offset="0.660156" stop-color="rgb(100%, 99.388123%, 88.006592%)" stop-opacity="1"/>
<stop offset="0.664062" stop-color="rgb(100%, 99.372864%, 87.716675%)" stop-opacity="1"/>
<stop offset="0.667969" stop-color="rgb(100%, 99.357605%, 87.426758%)" stop-opacity="1"/>
<stop offset="0.671875" stop-color="rgb(100%, 99.343872%, 87.139893%)" stop-opacity="1"/>
<stop offset="0.675781" stop-color="rgb(100%, 99.328613%, 86.84845%)" stop-opacity="1"/>
<stop offset="0.679688" stop-color="rgb(100%, 99.313354%, 86.561584%)" stop-opacity="1"/>
<stop offset="0.683594" stop-color="rgb(100%, 99.299622%, 86.271667%)" stop-opacity="1"/>
<stop offset="0.6875" stop-color="rgb(100%, 99.284363%, 85.98175%)" stop-opacity="1"/>
<stop offset="0.691406" stop-color="rgb(100%, 99.269104%, 85.693359%)" stop-opacity="1"/>
<stop offset="0.695312" stop-color="rgb(100%, 99.255371%, 85.403442%)" stop-opacity="1"/>
<stop offset="0.699219" stop-color="rgb(100%, 99.240112%, 85.115051%)" stop-opacity="1"/>
<stop offset="0.703125" stop-color="rgb(100%, 99.224854%, 84.82666%)" stop-opacity="1"/>
<stop offset="0.707031" stop-color="rgb(100%, 99.211121%, 84.536743%)" stop-opacity="1"/>
<stop offset="0.710938" stop-color="rgb(100%, 99.195862%, 84.248352%)" stop-opacity="1"/>
<stop offset="0.714844" stop-color="rgb(100%, 99.180603%, 83.959961%)" stop-opacity="1"/>
<stop offset="0.71875" stop-color="rgb(100%, 99.16687%, 83.668518%)" stop-opacity="1"/>
<stop offset="0.722656" stop-color="rgb(100%, 99.151611%, 83.381653%)" stop-opacity="1"/>
<stop offset="0.726562" stop-color="rgb(100%, 99.136353%, 83.093262%)" stop-opacity="1"/>
<stop offset="0.730469" stop-color="rgb(100%, 99.12262%, 82.801819%)" stop-opacity="1"/>
<stop offset="0.734375" stop-color="rgb(100%, 99.107361%, 82.514954%)" stop-opacity="1"/>
<stop offset="0.738281" stop-color="rgb(100%, 99.092102%, 82.223511%)" stop-opacity="1"/>
<stop offset="0.742188" stop-color="rgb(100%, 99.078369%, 81.93512%)" stop-opacity="1"/>
<stop offset="0.746094" stop-color="rgb(100%, 99.06311%, 81.646729%)" stop-opacity="1"/>
<stop offset="0.75" stop-color="rgb(100%, 99.047852%, 81.356812%)" stop-opacity="1"/>
<stop offset="0.753906" stop-color="rgb(100%, 99.034119%, 81.06842%)" stop-opacity="1"/>
<stop offset="0.757812" stop-color="rgb(100%, 99.01886%, 80.780029%)" stop-opacity="1"/>
<stop offset="0.761719" stop-color="rgb(100%, 99.003601%, 80.490112%)" stop-opacity="1"/>
<stop offset="0.765625" stop-color="rgb(100%, 98.989868%, 80.201721%)" stop-opacity="1"/>
<stop offset="0.769531" stop-color="rgb(100%, 98.974609%, 79.911804%)" stop-opacity="1"/>
<stop offset="0.773438" stop-color="rgb(100%, 98.959351%, 79.621887%)" stop-opacity="1"/>
<stop offset="0.777344" stop-color="rgb(100%, 98.945618%, 79.335022%)" stop-opacity="1"/>
<stop offset="0.78125" stop-color="rgb(100%, 98.930359%, 79.043579%)" stop-opacity="1"/>
<stop offset="0.785156" stop-color="rgb(100%, 98.9151%, 78.755188%)" stop-opacity="1"/>
<stop offset="0.789062" stop-color="rgb(100%, 98.901367%, 78.466797%)" stop-opacity="1"/>
<stop offset="0.792969" stop-color="rgb(100%, 98.886108%, 78.17688%)" stop-opacity="1"/>
<stop offset="0.796875" stop-color="rgb(100%, 98.872375%, 77.890015%)" stop-opacity="1"/>
<stop offset="0.800781" stop-color="rgb(100%, 98.857117%, 77.598572%)" stop-opacity="1"/>
<stop offset="0.804688" stop-color="rgb(100%, 98.841858%, 77.310181%)" stop-opacity="1"/>
<stop offset="0.808594" stop-color="rgb(100%, 98.826599%, 77.02179%)" stop-opacity="1"/>
<stop offset="0.8125" stop-color="rgb(100%, 98.812866%, 76.731873%)" stop-opacity="1"/>
<stop offset="0.816406" stop-color="rgb(100%, 98.797607%, 76.441956%)" stop-opacity="1"/>
<stop offset="0.820312" stop-color="rgb(100%, 98.783875%, 76.15509%)" stop-opacity="1"/>
<stop offset="0.824219" stop-color="rgb(100%, 98.768616%, 75.865173%)" stop-opacity="1"/>
<stop offset="0.828125" stop-color="rgb(100%, 98.753357%, 75.576782%)" stop-opacity="1"/>
<stop offset="0.832031" stop-color="rgb(100%, 98.739624%, 75.288391%)" stop-opacity="1"/>
<stop offset="0.835938" stop-color="rgb(100%, 98.724365%, 74.996948%)" stop-opacity="1"/>
<stop offset="0.839844" stop-color="rgb(100%, 98.709106%, 74.710083%)" stop-opacity="1"/>
<stop offset="0.84375" stop-color="rgb(100%, 98.693848%, 74.41864%)" stop-opacity="1"/>
<stop offset="0.847656" stop-color="rgb(100%, 98.680115%, 74.130249%)" stop-opacity="1"/>
<stop offset="0.851562" stop-color="rgb(100%, 98.664856%, 73.841858%)" stop-opacity="1"/>
<stop offset="0.855469" stop-color="rgb(100%, 98.651123%, 73.551941%)" stop-opacity="1"/>
<stop offset="0.859375" stop-color="rgb(100%, 98.635864%, 73.26355%)" stop-opacity="1"/>
<stop offset="0.863281" stop-color="rgb(100%, 98.620605%, 72.975159%)" stop-opacity="1"/>
<stop offset="0.867188" stop-color="rgb(100%, 98.606873%, 72.685242%)" stop-opacity="1"/>
<stop offset="0.871094" stop-color="rgb(100%, 98.591614%, 72.396851%)" stop-opacity="1"/>
<stop offset="0.875" stop-color="rgb(100%, 98.576355%, 72.106934%)" stop-opacity="1"/>
<stop offset="0.878906" stop-color="rgb(100%, 98.562622%, 71.817017%)" stop-opacity="1"/>
<stop offset="0.882812" stop-color="rgb(100%, 98.547363%, 71.530151%)" stop-opacity="1"/>
<stop offset="0.886719" stop-color="rgb(100%, 98.532104%, 71.238708%)" stop-opacity="1"/>
<stop offset="0.890625" stop-color="rgb(100%, 98.518372%, 70.950317%)" stop-opacity="1"/>
<stop offset="0.894531" stop-color="rgb(100%, 98.503113%, 70.663452%)" stop-opacity="1"/>
<stop offset="0.898438" stop-color="rgb(100%, 98.487854%, 70.372009%)" stop-opacity="1"/>
<stop offset="0.902344" stop-color="rgb(100%, 98.474121%, 70.083618%)" stop-opacity="1"/>
<stop offset="0.90625" stop-color="rgb(100%, 98.458862%, 69.795227%)" stop-opacity="1"/>
<stop offset="0.910156" stop-color="rgb(100%, 98.443604%, 69.50531%)" stop-opacity="1"/>
<stop offset="0.914062" stop-color="rgb(100%, 98.429871%, 69.216919%)" stop-opacity="1"/>
<stop offset="0.917969" stop-color="rgb(100%, 98.414612%, 68.927002%)" stop-opacity="1"/>
<stop offset="0.921875" stop-color="rgb(100%, 98.399353%, 68.638611%)" stop-opacity="1"/>
<stop offset="0.925781" stop-color="rgb(100%, 98.38562%, 68.35022%)" stop-opacity="1"/>
<stop offset="0.929688" stop-color="rgb(100%, 98.370361%, 68.060303%)" stop-opacity="1"/>
<stop offset="0.933594" stop-color="rgb(100%, 98.355103%, 67.770386%)" stop-opacity="1"/>
<stop offset="0.9375" stop-color="rgb(100%, 98.34137%, 67.483521%)" stop-opacity="1"/>
<stop offset="0.941406" stop-color="rgb(100%, 98.326111%, 67.192078%)" stop-opacity="1"/>
<stop offset="0.945312" stop-color="rgb(100%, 98.310852%, 66.905212%)" stop-opacity="1"/>
<stop offset="0.949219" stop-color="rgb(100%, 98.297119%, 66.615295%)" stop-opacity="1"/>
<stop offset="0.953125" stop-color="rgb(100%, 98.28186%, 66.325378%)" stop-opacity="1"/>
<stop offset="0.957031" stop-color="rgb(100%, 98.266602%, 66.038513%)" stop-opacity="1"/>
<stop offset="0.960938" stop-color="rgb(100%, 98.252869%, 65.748596%)" stop-opacity="1"/>
<stop offset="0.964844" stop-color="rgb(100%, 98.23761%, 65.458679%)" stop-opacity="1"/>
<stop offset="0.96875" stop-color="rgb(100%, 98.222351%, 65.170288%)" stop-opacity="1"/>
<stop offset="0.972656" stop-color="rgb(100%, 98.208618%, 64.881897%)" stop-opacity="1"/>
<stop offset="0.976562" stop-color="rgb(100%, 98.193359%, 64.590454%)" stop-opacity="1"/>
<stop offset="0.980469" stop-color="rgb(100%, 98.178101%, 64.303589%)" stop-opacity="1"/>
<stop offset="0.984375" stop-color="rgb(100%, 98.164368%, 64.012146%)" stop-opacity="1"/>
<stop offset="0.988281" stop-color="rgb(100%, 98.149109%, 63.725281%)" stop-opacity="1"/>
<stop offset="0.992188" stop-color="rgb(100%, 98.13385%, 63.43689%)" stop-opacity="1"/>
<stop offset="0.996094" stop-color="rgb(100%, 98.120117%, 63.145447%)" stop-opacity="1"/>
<stop offset="1" stop-color="rgb(100%, 98.112488%, 63.000488%)" stop-opacity="1"/>
</radialGradient>
</defs>
<g clip-path="url(#clip-0)">
<path fill-rule="nonzero" fill="url(#linear-pattern-0)" d="M 0.5 2000.5 L 4000.5 2000.5 L 4000.5 0.5 L 0.5 0.5 Z M 0.5 2000.5 "/>
</g>
<g clip-path="url(#clip-1)">
<rect x="-400.1" y="-200.1" width="4801.2" height="2401.2" fill="url(#radial-pattern-0)"/>
</g>
<path fill-rule="nonzero" fill="rgb(88.13324%, 67.123413%, 83.097839%)" fill-opacity="1" d="M 4000.5 1004.460938 C 3955.820312 998.28125 3911.800781 993.480469 3873.5 985.5 C 3709.5 953.5 3549.5 949.5 3389.5 885.5 C 3317.5 853.5 3229.5 837.5 3145.5 821.5 C 3101.5 813.5 3061.5 805.5 3017.5 793.5 C 2973.5 777.5 2937.5 789.5 2889.5 781.5 C 2813.5 769.5 2721.5 717.5 2641.5 693.5 C 2597.5 677.5 2557.5 661.5 2513.5 649.5 C 2457.5 629.5 2441.5 649.5 2393.5 645.5 C 2309.5 641.5 2217.5 573.5 2137.5 549.5 C 2029.5 517.5 1981.5 513.5 1877.5 565.5 C 1797.5 609.5 1713.5 669.5 1621.5 697.5 C 1533.5 729.5 1457.5 693.5 1373.5 729.5 C 1217.5 789.5 1065.5 857.5 905.5 893.5 C 870.5 900.828125 835.667969 907.308594 800.96875 913.351562 C 872.160156 948.898438 945.871094 981.960938 1018.320312 1016.640625 C 950.277344 1048.019531 880.480469 1075.820312 801.5 1077.5 C 713.5 1077.5 637.5 1101.5 549.5 1105.5 C 465.5 1109.5 381.5 1141.5 301.5 1165.5 C 212.832031 1193.210938 104.960938 1228.570312 0.5 1246.359375 L 0.5 1403.390625 C 15.710938 1419.261719 36.675781 1432.96875 65.5 1445.5 C 153.5 1481.5 249.5 1485.5 337.5 1517.5 C 573.5 1601.5 841.5 1593.5 1085.5 1637.5 C 1261.5 1669.5 1453.5 1649.5 1629.5 1649.5 L 2205.5 1649.5 C 2601.5 1649.5 2997.5 1589.5 3393.5 1549.5 C 3565.5 1529.5 3733.5 1537.5 3905.5 1501.5 C 3933.460938 1494.789062 3966.121094 1487.761719 4000.5 1479.640625 L 4000.5 1004.460938 "/>
<path fill="none" stroke-width="1.2" stroke-linecap="round" stroke-linejoin="round" stroke="rgb(13.729858%, 12.159729%, 12.548828%)" stroke-opacity="1" stroke-miterlimit="4" d="M 8640.859375 1945.117188 C 8197.109375 1893.710938 7748.710938 1856.992188 7295 1835 C 6095 1795 4895 1915 3735 2235 C 2853.554688 2496.210938 1759.0625 2730.703125 929.726562 3243.007812 " transform="matrix(0.1, 0, 0, -0.1, 0, 2001)"/>
<path fill-rule="nonzero" fill="rgb(88.13324%, 67.123413%, 83.097839%)" fill-opacity="1" d="M 0.5 954.839844 L 0.5 1077.980469 C 23.625 1062.929688 45.632812 1048.539062 65.5 1037.5 C 101.199219 1017.871094 136.898438 999.019531 171.167969 977.78125 C 166.660156 977.601562 162.101562 977.5 157.5 977.5 C 104.71875 977.5 51.9375 965.929688 0.5 954.839844 "/>
<path fill-rule="nonzero" fill="rgb(79.089355%, 53.869629%, 77.365112%)" fill-opacity="1" d="M 397.5 985.5 C 314.320312 1008.179688 249.007812 980.851562 171.167969 977.78125 C 136.898438 999.019531 101.199219 1017.871094 65.5 1037.5 C 45.632812 1048.539062 23.625 1062.929688 0.5 1077.980469 L 0.5 1246.359375 C 104.960938 1228.570312 212.832031 1193.210938 301.5 1165.5 C 381.5 1141.5 465.5 1109.5 549.5 1105.5 C 637.5 1101.5 713.5 1077.5 801.5 1077.5 C 880.480469 1075.820312 950.277344 1048.019531 1018.320312 1016.640625 C 945.871094 981.960938 872.160156 948.898438 800.96875 913.351562 C 665.128906 937 531.320312 953.640625 397.5 985.5 "/>
<path fill-rule="nonzero" fill="rgb(88.13324%, 67.123413%, 83.097839%)" fill-opacity="1" d="M 800.96875 913.351562 C 665.128906 937 531.320312 953.640625 397.5 985.5 C 314.320312 1008.179688 249.007812 980.851562 171.167969 977.78125 C 213.710938 951.421875 254.058594 921.371094 289.5 881.5 C 381.5 785.5 413.5 801.5 525.5 845.5 C 577.5 865.5 593.5 849.5 649.5 849.5 C 693.5 853.5 737.5 881.5 777.5 901.5 C 785.289062 905.488281 793.121094 909.429688 800.96875 913.351562 "/>
<path fill-rule="nonzero" fill="rgb(67.541504%, 29.660034%, 61.248779%)" fill-opacity="1" d="M 1529.5 1237.5 C 1433.5 1225.5 1349.5 1209.5 1269.5 1157.5 C 1192.21875 1103.199219 1106.210938 1058.710938 1018.320312 1016.640625 C 950.277344 1048.019531 880.480469 1075.820312 801.5 1077.5 C 713.5 1077.5 637.5 1101.5 549.5 1105.5 C 465.5 1109.5 381.5 1141.5 301.5 1165.5 C 212.828125 1193.210938 104.960938 1228.589844 0.5 1246.390625 L 0.5 1594.28125 C 13.878906 1609.21875 27.632812 1623.628906 41.5 1637.5 C 56.941406 1652.210938 74.289062 1665.160156 92.96875 1676.699219 C 148.179688 1693.769531 212.378906 1698.128906 261.5 1705.5 C 349.5 1721.5 437.5 1733.5 521.5 1745.5 C 633.5 1761.5 737.5 1797.5 849.5 1805.5 C 854.351562 1805.859375 859.210938 1806.179688 864.089844 1806.488281 C 1062.261719 1783.53125 1251.210938 1731.199219 1437.5 1649.5 C 1493.5 1625.5 1549.5 1605.5 1605.5 1585.5 C 1637.5 1577.5 1753.5 1561.5 1773.5 1537.5 C 1789.5 1513.5 1781.5 1281.5 1765.5 1265.5 C 1729.5 1237.5 1577.5 1245.5 1529.5 1237.5 "/>
<path fill-rule="nonzero" fill="rgb(79.089355%, 53.869629%, 77.365112%)" fill-opacity="1" d="M 4000.5 781.691406 C 3908.808594 751.769531 3857.140625 722.960938 3761.5 785.5 C 3721.5 817.5 3677.5 837.5 3633.5 865.5 C 3617.5 877.5 3589.5 901.5 3573.5 905.5 C 3545.5 909.5 3537.5 885.5 3517.5 885.5 C 3452.121094 885.5 3399.390625 934.511719 3349.359375 982.828125 C 3369.210938 987.011719 3389.238281 990.609375 3409.5 993.5 C 3573.5 1017.5 3737.5 1069.5 3901.5 1081.5 C 3936.351562 1084.671875 3968.679688 1087.839844 4000.5 1091 L 4000.5 781.691406 "/>
<path fill="none" stroke-width="1.2" stroke-linecap="round" stroke-linejoin="round" stroke="rgb(13.729858%, 12.159729%, 12.548828%)" stroke-opacity="1" stroke-miterlimit="4" d="M 29261.71875 8093.59375 C 28505.703125 7808.59375 27677.109375 7468.203125 26869.6875 7307.109375 " transform="matrix(0.1, 0, 0, -0.1, 0, 2001)"/>
<path fill="none" stroke-width="1.2" stroke-linecap="round" stroke-linejoin="round" stroke="rgb(13.729858%, 12.159729%, 12.548828%)" stroke-opacity="1" stroke-miterlimit="4" d="M 26869.6875 7307.109375 C 26801.210938 7332.8125 26729.882812 7349.609375 26655 7355 L 26695 7275 C 26753.085938 7284.6875 26811.40625 7295.390625 26869.6875 7307.109375 " transform="matrix(0.1, 0, 0, -0.1, 0, 2001)"/>
<path fill="none" stroke-width="1.2" stroke-linecap="round" stroke-linejoin="round" stroke="rgb(13.729858%, 12.159729%, 12.548828%)" stroke-opacity="1" stroke-miterlimit="4" d="M 34509.21875 5100 C 33203.515625 5192.382812 31912.109375 5380.703125 30695 5635 C 29775 5795 28895 5995 28055 6395 C 27639.21875 6602.890625 27313.398438 7140.898438 26869.6875 7307.109375 " transform="matrix(0.1, 0, 0, -0.1, 0, 2001)"/>
<path fill-rule="nonzero" fill="rgb(72.627258%, 44.18335%, 70.709229%)" fill-opacity="1" d="M 4000.5 1091 C 3968.679688 1087.839844 3936.351562 1084.671875 3901.5 1081.5 C 3737.5 1069.5 3573.5 1017.5 3409.5 993.5 C 3389.238281 990.609375 3369.210938 987.011719 3349.359375 982.828125 C 3319.808594 1011.371094 3291.210938 1039.679688 3261.5 1057.5 C 3173.5 1117.5 3053.5 1145.5 2953.5 1181.5 C 2944.511719 1184.769531 2935.390625 1188.171875 2926.171875 1191.640625 C 2998.378906 1204.980469 3065.890625 1228.308594 3137.5 1245.5 C 3233.5 1269.5 3337.5 1265.5 3433.5 1293.5 C 3438.550781 1354.128906 3448.378906 1424.320312 3450.921875 1491 C 3607.851562 1502.101562 3766.839844 1499.328125 3917.5 1477.5 C 3938.820312 1473.441406 3968.378906 1469.628906 4000.5 1464.519531 L 4000.5 1091 "/>
<path fill-rule="nonzero" fill="rgb(79.089355%, 53.869629%, 77.365112%)" fill-opacity="1" d="M 3349.359375 982.828125 C 3319.808594 1011.371094 3291.210938 1039.679688 3261.5 1057.5 C 3173.5 1117.5 3053.5 1145.5 2953.5 1181.5 C 2944.511719 1184.769531 2935.390625 1188.171875 2926.171875 1191.640625 C 2897.539062 1186.359375 2868.160156 1182.640625 2837.5 1181.5 C 2672.671875 1173.828125 2522.519531 1155.121094 2365.949219 1107.808594 C 2391.148438 1097.101562 2416.328125 1086.871094 2441.5 1077.5 C 2529.5 1045.5 2601.5 1001.5 2685.5 949.5 C 2725.5 925.5 2761.5 889.5 2809.5 885.5 C 2853.5 881.5 2885.5 909.5 2925.5 913.5 C 2965.5 917.5 3001.5 897.5 3041.5 897.5 C 3089.5 901.5 3117.5 913.5 3165.5 929.5 C 3226.199219 950.75 3286.910156 969.679688 3349.359375 982.828125 "/>
<path fill-rule="nonzero" fill="rgb(67.541504%, 29.660034%, 61.248779%)" fill-opacity="1" d="M 3445.5 1601.5 C 3439.390625 1639.671875 3408.808594 1661.519531 3368.210938 1674.839844 C 3090.199219 1679.429688 2797.710938 1662.628906 2529.5 1569.5 C 2417.5 1533.5 2281.5 1513.5 2193.5 1425.5 C 2121.5 1361.5 2049.5 1317.5 1965.5 1269.5 C 1963.699219 1268.601562 1961.28125 1267.289062 1958.621094 1265.800781 C 2097.609375 1235.539062 2232.128906 1164.730469 2365.949219 1107.808594 C 2522.519531 1155.121094 2672.671875 1173.828125 2837.5 1181.5 C 2945.5 1185.5 3037.5 1221.5 3137.5 1245.5 C 3233.5 1269.5 3337.5 1265.5 3433.5 1293.5 C 3441.5 1389.5 3461.5 1509.5 3445.5 1601.5 "/>
<path fill-rule="nonzero" fill="rgb(72.627258%, 44.18335%, 70.709229%)" fill-opacity="1" d="M 3368.210938 1674.839844 C 3302.441406 1696.421875 3210.378906 1695.609375 3153.5 1705.5 C 2917.5 1745.5 2681.5 1753.5 2437.5 1769.5 C 2081.5 1789.5 1717.5 1785.5 1357.5 1797.5 C 1194.46875 1801.378906 1023.910156 1816.558594 864.089844 1806.488281 C 1062.261719 1783.53125 1251.210938 1731.199219 1437.5 1649.5 C 1493.5 1625.5 1549.5 1605.5 1605.5 1585.5 C 1637.5 1577.5 1753.5 1561.5 1773.5 1537.5 C 1789.5 1513.5 1781.5 1281.5 1765.5 1265.5 C 1729.5 1237.5 1577.5 1245.5 1529.5 1237.5 C 1433.5 1225.5 1349.5 1209.5 1269.5 1157.5 C 1192.21875 1103.199219 1106.210938 1058.710938 1018.320312 1016.640625 C 1112.238281 973.320312 1202.800781 923.179688 1309.5 925.5 C 1405.5 925.5 1477.5 877.5 1573.5 865.5 C 1657.5 857.5 1765.5 921.5 1841.5 965.5 C 1941.5 1021.5 1985.5 1033.5 2101.5 1033.5 C 2181.5 1033.5 2265.5 1073.5 2345.5 1101.5 C 2352.328125 1103.671875 2359.140625 1105.761719 2365.949219 1107.808594 C 2232.128906 1164.730469 2097.609375 1235.539062 1958.621094 1265.800781 C 1949.488281 1260.691406 1937.5 1253.5 1937.5 1253.5 L 1917.5 1273.5 C 1931.25 1271.359375 1944.960938 1268.769531 1958.621094 1265.800781 C 1961.28125 1267.289062 1963.699219 1268.601562 1965.5 1269.5 C 2049.5 1317.5 2121.5 1361.5 2193.5 1425.5 C 2281.5 1513.5 2417.5 1533.5 2529.5 1569.5 C 2797.710938 1662.628906 3090.199219 1679.429688 3368.210938 1674.839844 "/>
<path fill-rule="nonzero" fill="rgb(61.66687%, 19.424438%, 52.693176%)" fill-opacity="1" d="M 4000.5 1251.449219 C 3942.28125 1218.800781 3884.890625 1179.160156 3825.5 1173.5 C 3777.5 1169.5 3745.5 1177.5 3701.5 1165.5 C 3637.5 1149.5 3645.5 1161.5 3585.5 1177.5 C 3537.5 1189.5 3509.5 1181.5 3461.5 1217.5 C 3417.5 1245.5 3381.5 1281.5 3337.5 1309.5 C 3241.5 1377.5 3193.5 1357.5 3097.5 1309.5 C 3017.5 1269.5 2941.5 1257.5 2853.5 1245.5 C 2767.230469 1234.71875 2693.878906 1298.230469 2627.640625 1348.960938 C 2661.179688 1362.160156 2696.101562 1373.5 2737.5 1373.5 C 2781.5 1373.5 2821.5 1365.5 2861.5 1377.5 C 2897.5 1393.5 2933.5 1425.5 2973.5 1445.5 C 3019.738281 1466.929688 3066.300781 1484.859375 3112.820312 1501.449219 C 3076.800781 1507.269531 3040.589844 1512.851562 3005.421875 1516.371094 C 2936.410156 1522.371094 2879.410156 1516.371094 2813.398438 1543.371094 C 2696.390625 1594.378906 2576.378906 1633.378906 2456.359375 1672.390625 L 2455.261719 1672.019531 C 2471.929688 1682.328125 2491.46875 1720.339844 2504.371094 1738.390625 C 2543.371094 1792.398438 2609.378906 1828.398438 2672.390625 1849.410156 C 2792.398438 1888.410156 2936.410156 1876.410156 3062.421875 1888.410156 C 3239.441406 1903.410156 3413.460938 1972.417969 3593.480469 1984.417969 C 3643.121094 1986.191406 3690.671875 1993.199219 3737.980469 2000.5 L 4000.5 2000.5 L 4000.5 1251.449219 "/>
<path fill-rule="nonzero" fill="rgb(54.882812%, 18.544006%, 47.160339%)" fill-opacity="1" d="M 3593.480469 1984.417969 C 3413.460938 1972.417969 3239.441406 1903.410156 3062.421875 1888.410156 C 2936.410156 1876.410156 2792.398438 1888.410156 2672.390625 1849.410156 C 2609.378906 1828.398438 2543.371094 1792.398438 2504.371094 1738.390625 C 2491.46875 1720.339844 2471.929688 1682.328125 2455.261719 1672.019531 L 2447.359375 1669.390625 C 2449.890625 1669.390625 2452.539062 1670.328125 2455.261719 1672.019531 L 2456.359375 1672.390625 C 2576.378906 1633.378906 2696.390625 1594.378906 2813.398438 1543.371094 C 2879.410156 1516.371094 2936.410156 1522.371094 3005.421875 1516.371094 C 3040.589844 1512.851562 3076.800781 1507.269531 3112.820312 1501.449219 C 3066.300781 1484.859375 3019.738281 1466.929688 2973.5 1445.5 C 2933.5 1425.5 2897.5 1393.5 2861.5 1377.5 C 2821.5 1365.5 2781.5 1373.5 2737.5 1373.5 C 2696.101562 1373.5 2661.179688 1362.160156 2627.640625 1348.960938 C 2620.171875 1354.671875 2612.789062 1360.230469 2605.5 1365.5 C 2525.5 1421.5 2433.5 1457.5 2345.5 1505.5 C 2262.578125 1546.960938 2190.308594 1602.621094 2108.609375 1649.070312 C 2164.460938 1687.921875 2217.21875 1736.230469 2273.5 1777.5 C 2365.5 1845.5 2469.5 1945.5 2581.5 1973.5 C 2635.128906 1986.449219 2691.328125 1994.261719 2747.71875 2000.5 L 3737.980469 2000.5 C 3690.671875 1993.199219 3643.121094 1986.191406 3593.480469 1984.417969 "/>
<path fill-rule="nonzero" fill="rgb(61.66687%, 19.424438%, 52.693176%)" fill-opacity="1" d="M 2581.5 1973.5 C 2469.5 1945.5 2365.5 1845.5 2273.5 1777.5 C 2217.21875 1736.230469 2164.460938 1687.921875 2108.609375 1649.070312 C 2103.609375 1651.921875 2098.578125 1654.730469 2093.5 1657.5 L 2097.5 1641.5 C 2101.21875 1643.980469 2104.921875 1646.511719 2108.609375 1649.070312 C 2190.308594 1602.621094 2262.578125 1546.960938 2345.5 1505.5 C 2433.5 1457.5 2525.5 1421.5 2605.5 1365.5 C 2612.789062 1360.230469 2620.171875 1354.671875 2627.640625 1348.960938 C 2586.640625 1332.820312 2547.699219 1313.898438 2501.5 1309.5 C 2405.5 1297.5 2345.5 1261.5 2261.5 1229.5 C 2217.5 1213.5 2189.5 1209.5 2149.5 1185.5 C 2113.5 1161.5 2073.5 1133.5 2029.5 1133.5 C 1989.5 1133.5 1953.5 1165.5 1913.5 1173.5 C 1861.5 1181.5 1845.5 1149.5 1801.5 1137.5 C 1697.5 1113.5 1641.5 1205.5 1569.5 1265.5 C 1529.5 1297.5 1501.5 1293.5 1453.5 1309.5 C 1417.5 1325.5 1369.5 1365.5 1337.5 1385.5 C 1303.199219 1406.078125 1268.171875 1423.710938 1233.03125 1440.621094 C 1248.859375 1454.550781 1264.75 1468.191406 1281.5 1477.5 C 1313.5 1493.5 1361.5 1501.5 1397.5 1521.5 C 1465.289062 1556.871094 1517.871094 1616.121094 1577.660156 1667.261719 C 1498.988281 1690.871094 1425.429688 1731.261719 1354.339844 1777.230469 C 1374.488281 1781.679688 1394.878906 1785.128906 1415.261719 1786.398438 C 1395.539062 1851.210938 1301.71875 1900.128906 1240.671875 1928.210938 C 1304.21875 1943.371094 1370.480469 1954.808594 1435.5 1967.5 C 1499.511719 1979.140625 1563.519531 1986.550781 1626.761719 2000.5 L 2747.71875 2000.5 C 2691.328125 1994.261719 2635.128906 1986.449219 2581.5 1973.5 "/>
<path fill-rule="nonzero" fill="rgb(61.66687%, 19.424438%, 52.693176%)" fill-opacity="1" d="M 929.5 1277.5 C 885.5 1261.5 849.5 1273.5 813.5 1261.5 C 785.5 1253.5 749.5 1237.5 721.5 1229.5 C 677.5 1209.5 673.5 1185.5 617.5 1205.5 C 573.5 1221.5 541.5 1261.5 505.5 1285.5 C 429.5 1333.5 345.5 1357.5 265.5 1389.5 C 185.5 1421.5 109.5 1465.5 25.5 1485.5 C 17.71875 1487.171875 9.308594 1488.988281 0.5 1491 L 0.5 2000.5 L 457.324219 2000.5 C 586.734375 1971.667969 730.597656 1949.128906 804.480469 1840.769531 C 756.839844 1796.039062 706.089844 1736.96875 678.917969 1704.101562 L 659.5 1723.679688 L 673.5 1697.5 C 675.179688 1699.558594 676.988281 1701.761719 678.917969 1704.101562 L 681.5 1701.5 C 682.679688 1701.320312 683.878906 1701.101562 685.070312 1700.878906 C 662.621094 1686.269531 640.050781 1671.671875 617.179688 1657.378906 C 589.910156 1641.019531 566.359375 1620.320312 543.429688 1599.21875 C 570 1592.828125 594.730469 1579.328125 626.179688 1549.371094 C 665.1875 1513.371094 722.1875 1426.359375 788.199219 1438.359375 C 848.199219 1450.359375 884.210938 1543.371094 926.210938 1585.378906 C 927.898438 1587.070312 929.601562 1588.671875 931.308594 1590.210938 C 985.378906 1565.308594 1039.441406 1539.230469 1093.5 1509.5 C 1139.199219 1484.359375 1186.210938 1463.140625 1233.03125 1440.621094 C 1214.851562 1424.601562 1196.75 1408.191406 1177.5 1397.5 C 1101.5 1357.5 1009.5 1301.5 929.5 1277.5 "/>
<path fill-rule="nonzero" fill="rgb(33.229065%, 10.575867%, 24.543762%)" fill-opacity="1" d="M 4000.5 1805.96875 C 3961.421875 1805.601562 3921 1807.449219 3901.5 1805.5 C 3737.5 1789.5 3605.5 1713.5 3461.5 1637.5 C 3349.488281 1577.191406 3231.289062 1543.679688 3112.820312 1501.449219 C 3076.800781 1507.269531 3040.589844 1512.851562 3005.421875 1516.371094 C 2936.410156 1522.371094 2879.410156 1516.371094 2813.398438 1543.371094 C 2696.390625 1594.378906 2576.378906 1633.378906 2456.359375 1672.390625 L 2455.261719 1672.019531 C 2471.929688 1682.328125 2491.46875 1720.339844 2504.371094 1738.390625 C 2543.371094 1792.398438 2609.378906 1828.398438 2672.390625 1849.410156 C 2792.398438 1888.410156 2936.410156 1876.410156 3062.421875 1888.410156 C 3239.441406 1903.410156 3413.460938 1972.417969 3593.480469 1984.417969 C 3643.121094 1986.191406 3690.671875 1993.199219 3737.980469 2000.5 L 4000.5 2000.5 L 4000.5 1805.96875 "/>
<path fill-rule="nonzero" fill="rgb(46.092224%, 14.91394%, 36.730957%)" fill-opacity="1" d="M 4000.5 1596.5 C 3964.511719 1588.761719 3929.609375 1579.578125 3893.511719 1564.378906 C 3863.5 1549.378906 3833.5 1531.371094 3803.5 1513.371094 C 3770.5 1495.371094 3746.488281 1501.371094 3716.488281 1492.371094 C 3650.480469 1474.371094 3623.480469 1378.359375 3560.46875 1357.359375 C 3503.46875 1339.351562 3419.460938 1396.359375 3374.460938 1423.359375 C 3311.449219 1459.371094 3260.441406 1477.371094 3188.441406 1489.371094 C 3163.609375 1493.089844 3138.261719 1497.328125 3112.820312 1501.449219 C 3231.289062 1543.679688 3349.488281 1577.191406 3461.5 1637.5 C 3605.5 1713.5 3737.5 1789.5 3901.5 1805.5 C 3921 1807.449219 3961.421875 1805.601562 4000.5 1805.96875 L 4000.5 1596.5 "/>
<path fill-rule="nonzero" fill="rgb(23.760986%, 7.981873%, 17.240906%)" fill-opacity="1" d="M 2849.398438 1864.410156 C 2850.921875 1863.78125 2852.449219 1863.160156 2853.96875 1862.539062 C 2852.28125 1859.160156 2850.75 1855.78125 2849.398438 1852.410156 L 2849.398438 1864.410156 "/>
<path fill-rule="nonzero" fill="rgb(23.760986%, 7.981873%, 17.240906%)" fill-opacity="1" d="M 4000.5 1967.511719 C 3819.050781 1938.910156 3664.53125 1876.730469 3512.46875 1765.398438 C 3473.460938 1738.390625 3467.460938 1735.390625 3425.460938 1732.390625 C 3398.449219 1729.390625 3407.449219 1741.390625 3380.449219 1726.390625 C 3368.449219 1720.390625 3356.449219 1699.390625 3347.449219 1690.390625 C 3302.441406 1633.378906 3257.441406 1636.378906 3197.429688 1684.390625 C 3099.710938 1764.351562 2969.839844 1815.070312 2853.96875 1862.539062 C 2880.019531 1914.648438 2945.171875 1966.96875 3007.421875 2000.5 L 4000.5 2000.5 L 4000.5 1967.511719 "/>
<path fill-rule="nonzero" fill="rgb(46.092224%, 14.91394%, 36.730957%)" fill-opacity="1" d="M 272.148438 1462.371094 C 215.140625 1432.359375 155.140625 1429.359375 98.128906 1396.359375 C 57.125 1374.878906 30.089844 1341.960938 0.5 1310.019531 L 0.5 1788.46875 C 32.210938 1782.46875 62.441406 1770.941406 95.128906 1759.398438 C 155.140625 1741.390625 218.140625 1729.390625 275.148438 1702.390625 C 338.148438 1672.390625 377.160156 1609.378906 449.167969 1606.378906 C 488.230469 1604.878906 516.757812 1605.628906 543.429688 1599.21875 C 515.898438 1573.898438 489.257812 1548.011719 458.167969 1528.371094 C 404.160156 1492.371094 329.148438 1489.371094 272.148438 1462.371094 "/>
<path fill-rule="nonzero" fill="rgb(33.229065%, 10.575867%, 24.543762%)" fill-opacity="1" d="M 543.429688 1599.21875 C 516.757812 1605.628906 488.230469 1604.878906 449.167969 1606.378906 C 377.160156 1609.378906 338.148438 1672.390625 275.148438 1702.390625 C 218.140625 1729.390625 155.140625 1741.390625 95.128906 1759.398438 C 62.441406 1770.941406 32.210938 1782.46875 0.5 1788.46875 L 0.5 2000.5 L 457.316406 2000.5 C 604.054688 1967.808594 769.394531 1943.210938 830.199219 1792.398438 C 758.199219 1750.390625 689.1875 1702.390625 617.179688 1657.378906 C 589.910156 1641.019531 566.359375 1620.320312 543.429688 1599.21875 "/>
<path fill="none" stroke-width="1.2" stroke-linecap="round" stroke-linejoin="round" stroke="rgb(74.838257%, 69.689941%, 56.596375%)" stroke-opacity="1" stroke-miterlimit="4" d="M 10863.28125 75.585938 L 10863.28125 75.585938 " transform="matrix(0.1, 0, 0, -0.1, 0, 2001)"/>
<path fill-rule="nonzero" fill="rgb(54.882812%, 18.544006%, 47.160339%)" fill-opacity="1" d="M 1577.660156 1667.261719 C 1498.988281 1690.871094 1425.429688 1731.261719 1354.339844 1777.230469 C 1327.03125 1771.199219 1300.140625 1763.300781 1274.25 1756.398438 C 1205.238281 1732.390625 1160.238281 1684.390625 1097.230469 1648.378906 C 1039.210938 1613.570312 981.199219 1634.851562 931.308594 1590.210938 C 985.378906 1565.308594 1039.441406 1539.230469 1093.5 1509.5 C 1139.199219 1484.359375 1186.210938 1463.140625 1233.03125 1440.621094 C 1248.859375 1454.550781 1264.75 1468.191406 1281.5 1477.5 C 1313.5 1493.5 1361.5 1501.5 1397.5 1521.5 C 1465.289062 1556.871094 1517.871094 1616.121094 1577.660156 1667.261719 "/>
<path fill-rule="nonzero" fill="rgb(46.092224%, 14.91394%, 36.730957%)" fill-opacity="1" d="M 1331.25 1792.398438 C 1264.070312 1834.390625 1192.179688 1862.269531 1119.28125 1888.691406 C 1142.738281 1899.449219 1166.71875 1908.738281 1191.5 1915.5 C 1207.648438 1920.058594 1224.070312 1924.25 1240.671875 1928.210938 C 1236.710938 1930.03125 1232.890625 1931.769531 1229.238281 1933.410156 C 1181.359375 1955.039062 1134.269531 1975.859375 1086.328125 1993.441406 C 1010.800781 1963.75 936.917969 1929.417969 864.359375 1888.691406 C 846.640625 1878.058594 825.871094 1860.859375 804.480469 1840.769531 C 814.371094 1826.261719 823.019531 1810.210938 830.199219 1792.398438 C 781.070312 1763.730469 733.320312 1732.269531 685.070312 1700.878906 C 736.578125 1691.488281 802.679688 1648.960938 853.5 1625.5 C 879.4375 1613.828125 905.378906 1602.148438 931.308594 1590.210938 C 981.199219 1634.851562 1039.210938 1613.570312 1097.230469 1648.378906 C 1160.238281 1684.390625 1205.238281 1732.390625 1274.25 1756.398438 C 1300.140625 1763.300781 1327.03125 1771.199219 1354.339844 1777.230469 C 1346.621094 1782.230469 1338.921875 1787.289062 1331.25 1792.398438 "/>
<path fill-rule="nonzero" fill="rgb(54.882812%, 18.544006%, 47.160339%)" fill-opacity="1" d="M 931.308594 1590.210938 C 905.378906 1602.148438 879.4375 1613.828125 853.5 1625.5 C 802.679688 1648.960938 736.578125 1691.488281 685.070312 1700.878906 C 662.621094 1686.269531 640.050781 1671.671875 617.179688 1657.378906 C 589.910156 1641.019531 566.359375 1620.320312 543.429688 1599.21875 C 570 1592.828125 594.730469 1579.328125 626.179688 1549.371094 C 665.1875 1513.371094 722.1875 1426.359375 788.199219 1438.359375 C 848.199219 1450.359375 884.210938 1543.371094 926.210938 1585.378906 C 927.898438 1587.070312 929.601562 1588.671875 931.308594 1590.210938 "/>
<path fill-rule="nonzero" fill="rgb(46.092224%, 14.91394%, 36.730957%)" fill-opacity="1" d="M 3449.019531 2000.5 C 3330.949219 1965.339844 3207.351562 1935.5 3092.429688 1885.410156 C 3032.421875 1858.410156 2972.410156 1828.398438 2912.410156 1801.398438 C 2876.398438 1786.398438 2867.398438 1792.398438 2828.398438 1792.398438 C 2786.398438 1795.398438 2774.390625 1786.398438 2738.390625 1765.398438 C 2678.378906 1726.390625 2621.378906 1693.390625 2567.371094 1642.378906 C 2504.371094 1582.378906 2480.371094 1576.378906 2396.359375 1561.378906 C 2318.351562 1546.378906 2300.351562 1471.371094 2237.339844 1432.359375 C 2171.328125 1393.359375 2111.328125 1426.359375 2060.320312 1474.371094 C 2006.320312 1525.371094 1961.308594 1579.378906 1895.308594 1615.378906 C 1832.300781 1648.390625 1781.289062 1642.378906 1712.289062 1645.390625 C 1665.578125 1646.378906 1620.851562 1654.289062 1577.660156 1667.261719 C 1599.011719 1685.53125 1621.289062 1702.761719 1645.5 1717.5 C 1701.5 1749.5 1761.5 1765.5 1821.5 1789.5 C 1881.5 1813.5 1929.5 1853.5 1989.5 1877.5 C 2101.5 1917.5 2217.5 1957.5 2333.5 1977.5 C 2329.171875 1984.710938 2325.238281 1992.460938 2321.550781 2000.5 L 3449.019531 2000.5 "/>
<path fill-rule="nonzero" fill="rgb(33.229065%, 10.575867%, 24.543762%)" fill-opacity="1" d="M 1821.5 1789.5 C 1761.5 1765.5 1701.5 1749.5 1645.5 1717.5 C 1621.289062 1702.761719 1599.011719 1685.53125 1577.660156 1667.261719 C 1490.441406 1693.429688 1409.5 1740.230469 1331.25 1792.398438 C 1264.070312 1834.390625 1192.179688 1862.269531 1119.28125 1888.691406 C 1142.738281 1899.449219 1166.71875 1908.738281 1191.5 1915.5 C 1269.5 1937.5 1353.5 1951.5 1435.5 1967.5 C 1499.511719 1979.140625 1563.519531 1986.550781 1626.761719 2000.5 L 2321.550781 2000.5 C 2325.238281 1992.460938 2329.171875 1984.710938 2333.5 1977.5 C 2217.5 1957.5 2101.5 1917.5 1989.5 1877.5 C 1929.5 1853.5 1881.5 1813.5 1821.5 1789.5 "/>
<path fill-rule="nonzero" fill="rgb(23.760986%, 7.981873%, 17.240906%)" fill-opacity="1" d="M 947.210938 1954.417969 C 907.398438 1973.378906 867.582031 1988.730469 826.25 2000.5 L 1626.761719 2000.5 C 1563.519531 1986.550781 1499.511719 1979.140625 1435.5 1967.5 C 1353.5 1951.5 1269.5 1937.5 1191.5 1915.5 C 1166.71875 1908.738281 1142.738281 1899.449219 1119.28125 1888.691406 C 1061.960938 1909.460938 1004 1929.320312 947.210938 1954.417969 "/>
<path fill-rule="nonzero" fill="rgb(23.760986%, 7.981873%, 17.240906%)" fill-opacity="1" d="M 825.5 1767.5 C 781.5 1773.5 751.5 1811.5 705.5 1819.5 C 619.5 1833.5 553.5 1753.5 469.5 1805.5 C 429.5 1829.5 405.5 1867.5 357.5 1877.5 C 315.5 1887.5 271.5 1887.5 233.5 1909.5 C 193.5 1933.5 155.5 1955.5 113.5 1975.5 C 96.902344 1982.488281 79.917969 1991.769531 62.554688 2000.5 L 826.25 2000.5 C 867.582031 1988.730469 907.398438 1973.378906 947.210938 1954.417969 C 1004 1929.320312 1061.960938 1909.460938 1119.28125 1888.691406 C 1059.421875 1861.230469 1002.980469 1824.238281 945.5 1795.5 C 909.5 1775.5 867.5 1761.5 825.5 1767.5 "/>
<path fill-rule="nonzero" fill="rgb(23.760986%, 7.981873%, 17.240906%)" fill-opacity="1" d="M 2513.5 1833.5 C 2467.5 1835.5 2437.5 1889.5 2391.5 1895.5 C 2369.5 1897.5 2351.5 1893.5 2331.5 1901.5 C 2305.5 1909.5 2287.5 1929.5 2265.5 1941.5 C 2227.5 1961.5 2183.5 1967.5 2145.5 1987.5 C 2137.308594 1992 2129.03125 1996.328125 2120.691406 2000.5 L 3033.179688 2000.5 C 3022.78125 1997.148438 3012.238281 1994.03125 3001.5 1991.5 C 2919.5 1969.5 2837.5 1947.5 2757.5 1921.5 C 2717.5 1907.5 2677.5 1903.5 2637.5 1887.5 C 2605.5 1873.5 2547.5 1831.5 2513.5 1833.5 "/>
</svg>
